<svg width="63" height="67" viewBox="0 0 63 67" fill="none" xmlns="http://www.w3.org/2000/svg">
<path d="M6.94055 29.0139L5.37109 41.5476C14.8388 47.674 23.3623 55.6639 31.2989 64.8152C40.1796 55.5235 49.1242 47.5591 58.1453 41.3944L56.2823 29.0139H6.94055Z" fill="white"/>
<path d="M31.3506 54.6199C23.7331 44.8942 16.3324 38.5252 5.53771 31.7224C7.80894 18.9334 3.84067 12.4624 0 0.0563965C10.8713 7.95693 22.1126 17.3252 31.3123 26.5021C40.729 16.1893 52.2128 7.01244 62.6247 0.0563965C59.6134 13.2154 54.5477 18.9334 57.0869 31.6075C46.3943 38.4104 39.5041 44.8942 31.3506 54.6199Z" fill="#FF7300"/>
<path d="M31.2996 66.9459L30.2788 65.7206C22.087 55.944 13.7805 48.5286 4.1214 42.3768L3.29199 41.8407L3.55997 40.8835C6.97957 28.618 4.15967 15.1018 0.956978 3.50008L0 0.0412598L2.98577 2.03231C12.8618 8.63088 22.3933 16.8631 31.3123 26.4866C40.2313 16.8631 49.7629 8.63088 59.6389 2.03231L62.6247 0.0412598L61.6677 3.50008C58.4523 15.1018 55.6323 28.618 59.0647 40.8835L59.3327 41.8407L58.5032 42.3768C48.8441 48.5286 40.5376 55.944 32.3458 65.7206L31.2996 66.9459ZM6.37986 40.6665C15.5286 46.6141 23.4907 53.685 31.2996 62.8106C39.1086 53.685 47.0706 46.6141 56.2193 40.6665C53.3356 29.2817 55.3516 17.1439 58.146 6.30799C49.1377 12.6768 40.4483 20.4241 32.2821 29.3838L31.2996 30.4687L30.3171 29.3838C22.1509 20.4241 13.4615 12.6768 4.45313 6.30799C7.2475 17.1312 9.26355 29.2817 6.37986 40.6665Z" fill="#252429"/>
<path d="M31.3539 54.6175C29.172 51.8734 27.5132 49.9845 25.6758 47.9551L37.1467 48.0444C34.9776 50.3291 33.4975 52.0521 31.3539 54.6175Z" fill="#252429"/>
</svg>
