<svg width="149" height="27" viewBox="0 0 149 27" fill="none" xmlns="http://www.w3.org/2000/svg">
<path fill-rule="evenodd" clip-rule="evenodd" d="M87.8281 17.6441V8.17617L92.9209 8.13357C93.6285 8.12737 94.2611 8.15994 94.8167 8.20468C95.2347 8.2377 95.6159 8.30374 95.9622 8.40572C96.3081 8.50715 96.6024 8.63044 96.8438 8.77491C97.0848 8.92164 97.2907 9.08538 97.4551 9.26513C97.6221 9.44488 97.7543 9.65561 97.8577 9.89926C97.9576 10.1408 98.0168 10.4012 98.0341 10.6786C98.0535 10.989 98.0237 11.2798 97.9472 11.5498C97.8707 11.8199 97.7394 12.0753 97.5507 12.3124C97.3642 12.5515 97.1227 12.7572 96.8276 12.9297C96.5333 13.1028 96.114 13.2805 95.5703 13.4609L98.0894 17.5562H94.6285L91.7322 12.3315C92.0354 12.3763 92.4016 12.3858 92.6904 12.3858C93.0928 12.3858 93.5381 12.3819 93.8602 12.2806C94.1822 12.1785 94.2682 11.988 94.4243 11.7746C94.5783 11.5616 94.6494 11.3393 94.634 11.1024C94.6216 10.9034 94.5481 10.728 94.4115 10.5791C94.2748 10.4278 94.0665 10.3163 93.7873 10.243C93.5109 10.1696 93.0866 10.1315 92.5175 10.1315C92.3216 10.1315 92.1239 10.1355 91.9147 10.1411L91.2766 10.1601L91.3622 17.6442H87.8283L87.8281 17.6441Z" fill="#026941"/>
<path fill-rule="evenodd" clip-rule="evenodd" d="M48.375 8.28516H52.8789L54.6177 14.0083L56.3486 8.28516H60.8372V17.6925H58.0408V10.5192L55.871 17.6925H53.3406L51.1793 10.5192V17.6925H48.375V8.28516Z" fill="#026941"/>
<path fill-rule="evenodd" clip-rule="evenodd" d="M43.1926 16.1396H39.292L38.7553 17.6926H35.2578L39.4212 8.28516H43.1538L47.3199 17.6926H43.7369L43.1927 16.1396H43.1926ZM42.4754 14.1048L41.2501 10.7233L40.0324 14.1048H42.4754Z" fill="#026941"/>
<path fill-rule="evenodd" clip-rule="evenodd" d="M23.5 8.28516H26.9236V11.577H30.6659V8.28516H34.1049V17.6925H30.6659V13.8879H26.9236V17.6925H23.5V8.28516Z" fill="#026941"/>
<path fill-rule="evenodd" clip-rule="evenodd" d="M63.0195 8.28516H66.4913V17.6209H63.0195V8.28516ZM66.6236 12.6947C67.7501 11.2393 68.9086 9.79446 69.9408 8.28516C71.2124 8.29755 72.4812 8.2953 73.7528 8.28516L70.123 12.6601L74.2422 17.6209C72.9024 17.6109 71.5652 17.6081 70.2259 17.6209C69.4918 16.5117 68.2908 14.8702 66.6235 12.6947H66.6236Z" fill="#026941"/>
<path fill-rule="evenodd" clip-rule="evenodd" d="M79.0743 10.4328C78.1615 10.4328 77.415 11.1779 77.415 12.0888V13.6615C77.415 14.5718 78.1615 15.3175 79.0743 15.3175H81.7048C82.6172 15.3175 83.3641 14.5717 83.3641 13.6615V12.0888C83.3641 11.1779 82.6172 10.4328 81.7048 10.4328H79.0743ZM77.823 8.10938H82.9562C84.7367 8.10938 86.1933 9.5638 86.1933 11.341V14.4093C86.1933 16.1863 84.7367 17.6407 82.9562 17.6407H77.823C76.0424 17.6407 74.5859 16.1863 74.5859 14.4093V11.341C74.5859 9.5638 76.0424 8.10938 77.823 8.10938Z" fill="#026941"/>
<path fill-rule="evenodd" clip-rule="evenodd" d="M123.645 8.28516H126.843L131.014 13.4897V8.28516H134.242V17.6925H131.014L126.864 12.5276V17.6925H123.645V8.28516Z" fill="#5DB139"/>
<path fill-rule="evenodd" clip-rule="evenodd" d="M118.4 16.1396H114.499L113.963 17.6926H110.465L114.628 8.28516H118.361L122.527 17.6926H118.944L118.4 16.1396H118.4ZM117.682 14.1048L116.457 10.7233L115.24 14.1048H117.682H117.682Z" fill="#5DB139"/>
<path fill-rule="evenodd" clip-rule="evenodd" d="M99.8204 8.28516H106.231C107.299 8.28516 108.118 8.51144 108.689 8.96007C109.261 9.4095 109.548 9.96519 109.548 10.6269C109.548 11.1833 109.345 11.6611 108.937 12.0589C108.664 12.325 108.266 12.5345 107.742 12.688C108.537 12.8499 109.124 13.1289 109.499 13.5244C109.874 13.9194 110.061 14.4186 110.061 15.0158C110.061 15.5043 109.928 15.943 109.662 16.3329C109.394 16.7227 109.029 17.0294 108.565 17.2567C108.279 17.3974 107.845 17.4998 107.265 17.5639C106.494 17.6484 105.983 17.6927 105.731 17.6927H99.8203V8.28527L99.8204 8.28516ZM103.274 11.976H104.763C105.297 11.976 105.67 11.8987 105.879 11.7411C106.089 11.5855 106.192 11.358 106.192 11.065C106.192 10.791 106.089 10.5764 105.879 10.4231C105.669 10.2678 105.304 10.1904 104.786 10.1904H103.274V11.976ZM103.274 15.6713H105.021C105.611 15.6713 106.026 15.5826 106.267 15.4058C106.509 15.2281 106.63 14.9901 106.63 14.6898C106.63 14.4119 106.512 14.1884 106.271 14.0197C106.032 13.8511 105.614 13.7659 105.013 13.7659H103.274V15.6712V15.6713Z" fill="#5DB139"/>
<path fill-rule="evenodd" clip-rule="evenodd" d="M136.148 8.28516H139.62V17.6209H136.148V8.28516ZM139.752 12.6947C140.879 11.2393 142.038 9.79446 143.07 8.28516C144.342 8.29755 145.61 8.2953 146.882 8.28516L143.252 12.6601L147.371 17.6209C146.032 17.6109 144.694 17.6081 143.355 17.6209C142.621 16.5117 141.42 14.8702 139.752 12.6947H139.752Z" fill="#5DB139"/>
<path fill-rule="evenodd" clip-rule="evenodd" d="M6.69092 4.66016H12.5271L5.83612 22.8941H0L6.69092 4.66016Z" fill="#5DB139"/>
<path fill-rule="evenodd" clip-rule="evenodd" d="M14.9995 0H20.8357L14.1448 18.234H8.30859L14.9995 0Z" fill="#5DB139"/>
<path fill-rule="evenodd" clip-rule="evenodd" d="M76.5978 26.2236H77.5008C77.6563 26.2236 77.7652 26.2174 77.8288 26.2046C77.9381 26.1833 78.0311 26.1474 78.1052 26.0965C78.1797 26.0466 78.2402 25.9727 78.288 25.8764C78.3362 25.7796 78.36 25.6686 78.36 25.5419C78.36 25.3945 78.3257 25.2663 78.2552 25.157C78.1861 25.0472 78.0903 24.971 77.967 24.9267C77.8448 24.882 77.6668 24.86 77.4368 24.86H76.5979V26.2237L76.5978 26.2236ZM76.5978 24.396H77.382C77.5946 24.396 77.7473 24.3809 77.8392 24.3502C77.9614 24.311 78.0539 24.2449 78.1156 24.153C78.1772 24.0611 78.2079 23.9457 78.2079 23.8073C78.2079 23.675 78.1796 23.5592 78.1209 23.4595C78.0638 23.3597 77.9808 23.2909 77.874 23.2538C77.7672 23.2174 77.5828 23.199 77.3229 23.199H76.5978V24.396ZM76.1172 26.6874V22.7344H77.4774C77.7542 22.7344 77.9758 22.7743 78.1439 22.8543C78.3108 22.9343 78.442 23.0578 78.5365 23.224C78.6319 23.39 78.6791 23.5636 78.6791 23.7457C78.6791 23.9144 78.6368 24.0733 78.5534 24.223C78.4699 24.3715 78.3431 24.492 78.1736 24.5838C78.3929 24.6538 78.5619 24.7737 78.6791 24.9429C78.7974 25.1114 78.856 25.3109 78.856 25.5411C78.856 25.7266 78.8202 25.899 78.748 26.0583C78.6765 26.2174 78.5881 26.3396 78.4822 26.4264C78.3769 26.5122 78.2442 26.5771 78.0857 26.6214C77.9266 26.6656 77.7314 26.6874 77.4998 26.6874H76.1172Z" fill="#2B2A29"/>
<path fill-rule="evenodd" clip-rule="evenodd" d="M79.5898 22.7344H80.0709V26.6874H79.5898V22.7344Z" fill="#2B2A29"/>
<path fill-rule="evenodd" clip-rule="evenodd" d="M81.4108 24.4789H82.4405C82.6602 24.4789 82.83 24.4536 82.9534 24.4037C83.0772 24.3549 83.1706 24.2765 83.2337 24.1668C83.2977 24.0582 83.3295 23.9405 83.3295 23.8126C83.3295 23.6261 83.2678 23.4711 83.1442 23.3505C83.0199 23.2301 82.8241 23.1701 82.5573 23.1701H81.4108V24.4788V24.4789ZM80.9298 26.6868V22.7344H82.5369C82.8599 22.7344 83.1055 22.7701 83.2733 22.8408C83.4414 22.9119 83.5751 23.0368 83.676 23.2166C83.7763 23.3952 83.8261 23.5948 83.8261 23.8115C83.8261 24.0922 83.7421 24.3287 83.5761 24.5208C83.4096 24.7134 83.1537 24.8351 82.8058 24.8872C82.933 24.9532 83.0294 25.0199 83.0954 25.0837C83.2356 25.2238 83.3679 25.3997 83.4916 25.6103L84.1187 26.6865H83.5199L83.0403 25.8641C82.9012 25.6261 82.7858 25.445 82.6954 25.3184C82.6039 25.1923 82.5229 25.105 82.4513 25.0546C82.3804 25.0047 82.3072 24.97 82.2327 24.9498C82.1786 24.9374 82.0902 24.9312 81.9663 24.9312H81.4107V26.6865H80.9297L80.9298 26.6868Z" fill="#2B2A29"/>
<path fill-rule="evenodd" clip-rule="evenodd" d="M86.2707 25.1358V24.6719H87.8051V26.1365C87.5692 26.341 87.3266 26.4955 87.0757 26.5986C86.8252 26.7018 86.5683 26.7532 86.3043 26.7532C85.9486 26.7532 85.625 26.6704 85.3338 26.5034C85.0435 26.3381 84.8234 26.0971 84.6758 25.7829C84.5272 25.4686 84.4531 25.1174 84.4531 24.7297C84.4531 24.3454 84.5268 23.9861 84.6738 23.6528C84.8219 23.3195 85.0341 23.0714 85.3105 22.9105C85.5873 22.7487 85.9064 22.668 86.2672 22.668C86.5291 22.668 86.7661 22.7138 86.9782 22.8068C87.1899 22.8999 87.3565 23.0281 87.4761 23.1929C87.5965 23.3587 87.6879 23.575 87.7504 23.8405L87.3171 23.9699C87.2625 23.7693 87.1948 23.6109 87.1144 23.4949C87.0338 23.38 86.9189 23.2881 86.7689 23.2186C86.6193 23.1503 86.4528 23.115 86.27 23.115C86.0514 23.115 85.8624 23.152 85.702 23.2248C85.5424 23.2977 85.4142 23.3928 85.3153 23.5127C85.218 23.6311 85.1419 23.762 85.0877 23.9039C84.9958 24.1492 84.949 24.4143 84.949 24.7005C84.949 25.054 85.0046 25.3492 85.1155 25.5874C85.2263 25.8244 85.3894 26.0014 85.6005 26.1163C85.8132 26.2317 86.0384 26.2899 86.2779 26.2899C86.4852 26.2899 86.6879 26.245 86.8847 26.1576C87.0825 26.0692 87.232 25.9768 87.3345 25.8764V25.1357H86.2705L86.2707 25.1358Z" fill="#2B2A29"/>
<path fill-rule="evenodd" clip-rule="evenodd" d="M89.1564 25.0644H90.3914L90.0137 23.968C89.8993 23.6354 89.8134 23.3603 89.7538 23.1429C89.704 23.4006 89.6374 23.6533 89.5539 23.9042L89.1563 25.0644H89.1564ZM88.1133 26.687L89.5038 22.7344H90.0316L91.5071 26.687H90.9614L90.542 25.4891H89.0153L88.6223 26.687H88.1134H88.1133Z" fill="#2B2A29"/>
<path fill-rule="evenodd" clip-rule="evenodd" d="M91.875 26.6874V22.7344H92.356V26.2236H94.1382V26.6874H91.875Z" fill="#2B2A29"/>
<path fill-rule="evenodd" clip-rule="evenodd" d="M94.7852 22.7344H95.2658V26.6874H94.7852V22.7344Z" fill="#2B2A29"/>
<path fill-rule="evenodd" clip-rule="evenodd" d="M96.0938 26.6874V22.7344H96.5749V24.6942L98.3758 22.7344H99.0254L97.5047 24.3379L99.091 26.6874H98.4584L97.1684 24.6924L96.5749 25.3188V26.6874H96.0938Z" fill="#2B2A29"/>
<path fill-rule="evenodd" clip-rule="evenodd" d="M99.9732 26.2236H100.746C100.985 26.2236 101.172 26.2 101.308 26.1514C101.444 26.1021 101.552 26.0343 101.633 25.9457C101.746 25.8213 101.834 25.6545 101.898 25.4443C101.961 25.2348 101.993 24.9805 101.993 24.682C101.993 24.2679 101.931 23.949 101.806 23.7268C101.683 23.5043 101.532 23.3553 101.353 23.2797C101.226 23.2253 101.019 23.199 100.733 23.199H99.9732V26.2236ZM99.4922 26.6874V22.7344H100.741C101.023 22.7344 101.238 22.7534 101.387 22.7909C101.594 22.8437 101.771 22.9383 101.918 23.0744C102.11 23.251 102.252 23.4756 102.347 23.7495C102.442 24.0235 102.489 24.3379 102.489 24.6903C102.489 24.9899 102.457 25.2555 102.393 25.4879C102.329 25.72 102.246 25.9116 102.146 26.0639C102.045 26.215 101.935 26.3351 101.815 26.4218C101.696 26.5092 101.552 26.5752 101.383 26.6202C101.214 26.6655 101.019 26.6873 100.8 26.6873H99.4922V26.6874Z" fill="#2B2A29"/>
<path fill-rule="evenodd" clip-rule="evenodd" d="M103.789 25.0644H105.025L104.647 23.968C104.533 23.6354 104.446 23.3603 104.387 23.1429C104.337 23.4006 104.27 23.6533 104.187 23.9042L103.789 25.0644ZM102.746 26.687L104.137 22.7344H104.664L106.14 26.687H105.594L105.175 25.4891H103.648L103.256 26.687H102.746Z" fill="#2B2A29"/>
<path fill-rule="evenodd" clip-rule="evenodd" d="M108.585 26.6873V25.0129L107.188 22.7344H107.765L108.481 23.9312C108.615 24.1531 108.739 24.3742 108.852 24.5967C108.962 24.3889 109.096 24.1568 109.253 23.8993L109.954 22.7344H110.514L109.066 25.0129V26.6873H108.585Z" fill="#2B2A29"/>
<path fill-rule="evenodd" clip-rule="evenodd" d="M113.314 22.7345H113.795V25.0174C113.795 25.4146 113.754 25.7307 113.672 25.9643C113.589 26.1974 113.441 26.3879 113.226 26.5335C113.011 26.6804 112.73 26.7537 112.38 26.7537C112.042 26.7537 111.765 26.6904 111.55 26.562C111.333 26.4343 111.18 26.25 111.088 26.0086C110.996 25.7659 110.949 25.436 110.949 25.0174V22.7345H111.43V25.0163C111.43 25.3598 111.46 25.614 111.518 25.7754C111.576 25.9385 111.676 26.0646 111.818 26.1519C111.96 26.2404 112.134 26.284 112.339 26.284C112.69 26.284 112.941 26.1973 113.09 26.0229C113.24 25.8482 113.314 25.5131 113.314 25.0162V22.7344V22.7345Z" fill="#2B2A29"/>
<path fill-rule="evenodd" clip-rule="evenodd" d="M114.574 26.6874V22.7344H115.055V24.6942L116.856 22.7344H117.505L115.985 24.3379L117.571 26.6874H116.939L115.648 24.6924L115.055 25.3188V26.6874H114.574Z" fill="#2B2A29"/>
<path fill-rule="evenodd" clip-rule="evenodd" d="M117.816 25.417L118.267 25.3728C118.288 25.5716 118.338 25.7341 118.417 25.8624C118.495 25.9889 118.616 26.0926 118.781 26.1716C118.945 26.2496 119.131 26.2899 119.338 26.2899C119.52 26.2899 119.681 26.2603 119.822 26.1998C119.962 26.1404 120.066 26.0586 120.134 25.9543C120.202 25.8502 120.237 25.7375 120.237 25.6155C120.237 25.4929 120.204 25.3848 120.138 25.2923C120.072 25.1999 119.963 25.123 119.811 25.0591C119.714 25.0188 119.499 24.9543 119.166 24.8675C118.832 24.7795 118.599 24.6978 118.467 24.6204C118.293 24.5207 118.165 24.3979 118.081 24.2512C117.995 24.1049 117.953 23.9403 117.953 23.7594C117.953 23.5588 118.006 23.3722 118.109 23.1991C118.213 23.0249 118.364 22.8932 118.564 22.803C118.763 22.7128 118.986 22.668 119.229 22.668C119.497 22.668 119.734 22.715 119.939 22.8096C120.145 22.9038 120.303 23.0428 120.413 23.2265C120.524 23.4096 120.582 23.6174 120.591 23.8494L120.13 23.888C120.106 23.6381 120.022 23.4494 119.88 23.3233C119.737 23.1949 119.526 23.1317 119.248 23.1317C118.957 23.1317 118.746 23.1894 118.614 23.3054C118.481 23.4213 118.414 23.5608 118.414 23.7249C118.414 23.8661 118.461 23.9833 118.555 24.0751C118.648 24.167 118.888 24.2612 119.278 24.3569C119.668 24.4534 119.936 24.5378 120.081 24.6096C120.291 24.7148 120.447 24.8483 120.547 25.0106C120.648 25.1725 120.698 25.3595 120.698 25.5714C120.698 25.782 120.643 25.9792 120.532 26.1647C120.422 26.3507 120.264 26.4952 120.057 26.5983C119.85 26.7015 119.618 26.7529 119.359 26.7529C119.031 26.7529 118.758 26.7001 118.537 26.596C118.314 26.4925 118.141 26.336 118.016 26.1265C117.889 25.9176 117.824 25.6811 117.816 25.4167V25.417Z" fill="#2B2A29"/>
<path fill-rule="evenodd" clip-rule="evenodd" d="M121.992 25.0644H123.227L122.85 23.968C122.736 23.6354 122.649 23.3603 122.59 23.1429C122.54 23.4006 122.473 23.6533 122.39 23.9042L121.992 25.0644ZM120.949 26.687L122.34 22.7344H122.867L124.343 26.687H123.797L123.378 25.4891H121.852L121.458 26.687H120.949H120.949Z" fill="#2B2A29"/>
<path fill-rule="evenodd" clip-rule="evenodd" d="M124.707 26.6874V22.7344H125.188V26.2236H126.97V26.6874H124.707Z" fill="#2B2A29"/>
<path fill-rule="evenodd" clip-rule="evenodd" d="M127.621 22.7344H128.102V26.6874H127.621V22.7344Z" fill="#2B2A29"/>
<path fill-rule="evenodd" clip-rule="evenodd" d="M128.789 25.417L129.239 25.3728C129.261 25.5716 129.31 25.7341 129.389 25.8624C129.467 25.9889 129.589 26.0926 129.753 26.1716C129.917 26.2496 130.104 26.2899 130.31 26.2899C130.493 26.2899 130.654 26.2603 130.794 26.1998C130.934 26.1404 131.038 26.0586 131.106 25.9543C131.174 25.8502 131.209 25.7375 131.209 25.6155C131.209 25.4929 131.176 25.3848 131.11 25.2923C131.045 25.1999 130.935 25.123 130.784 25.0591C130.686 25.0188 130.472 24.9543 130.138 24.8675C129.805 24.7795 129.572 24.6978 129.439 24.6204C129.265 24.5207 129.137 24.3979 129.053 24.2512C128.967 24.1049 128.926 23.9403 128.926 23.7594C128.926 23.5588 128.978 23.3722 129.082 23.1991C129.186 23.0249 129.337 22.8932 129.536 22.803C129.736 22.7128 129.958 22.668 130.202 22.668C130.47 22.668 130.707 22.715 130.912 22.8096C131.117 22.9038 131.275 23.0428 131.386 23.2265C131.496 23.4096 131.555 23.6174 131.564 23.8494L131.103 23.888C131.078 23.6381 130.995 23.4494 130.852 23.3233C130.709 23.1949 130.498 23.1317 130.22 23.1317C129.93 23.1317 129.718 23.1894 129.586 23.3054C129.453 23.4213 129.387 23.5608 129.387 23.7249C129.387 23.8661 129.434 23.9833 129.527 24.0751C129.62 24.167 129.861 24.2612 130.25 24.3569C130.641 24.4534 130.908 24.5378 131.053 24.6096C131.264 24.7148 131.419 24.8483 131.52 25.0106C131.62 25.1725 131.67 25.3595 131.67 25.5714C131.67 25.782 131.615 25.9792 131.505 26.1647C131.394 26.3507 131.236 26.4952 131.03 26.5983C130.823 26.7015 130.591 26.7529 130.332 26.7529C130.004 26.7529 129.73 26.7001 129.509 26.596C129.287 26.4925 129.114 26.336 128.988 26.1265C128.862 25.9176 128.796 25.6811 128.789 25.4167L128.789 25.417Z" fill="#2B2A29"/>
<path fill-rule="evenodd" clip-rule="evenodd" d="M132.348 26.6874V22.7344H132.828V24.3636H134.702V22.7344H135.183V26.6874H134.702V24.8274H132.828V26.6874H132.348Z" fill="#2B2A29"/>
<path fill-rule="evenodd" clip-rule="evenodd" d="M137.231 25.417L137.681 25.3728C137.702 25.5716 137.753 25.7341 137.831 25.8624C137.909 25.9889 138.031 26.0926 138.195 26.1716C138.36 26.2496 138.546 26.2899 138.752 26.2899C138.935 26.2899 139.096 26.2603 139.236 26.1998C139.376 26.1404 139.48 26.0586 139.548 25.9543C139.617 25.8502 139.651 25.7375 139.651 25.6155C139.651 25.4929 139.618 25.3848 139.552 25.2923C139.486 25.1999 139.378 25.123 139.226 25.0591C139.128 25.0188 138.913 24.9543 138.58 24.8675C138.247 24.7795 138.014 24.6978 137.881 24.6204C137.708 24.5207 137.579 24.3979 137.494 24.2512C137.409 24.1049 137.367 23.9403 137.367 23.7594C137.367 23.5588 137.42 23.3722 137.524 23.1991C137.627 23.0249 137.778 22.8932 137.979 22.803C138.177 22.7128 138.4 22.668 138.643 22.668C138.912 22.668 139.148 22.715 139.354 22.8096C139.559 22.9038 139.717 23.0428 139.827 23.2265C139.937 23.4096 139.997 23.6174 140.005 23.8494L139.544 23.888C139.52 23.6381 139.436 23.4494 139.293 23.3233C139.151 23.1949 138.94 23.1317 138.662 23.1317C138.372 23.1317 138.159 23.1894 138.027 23.3054C137.895 23.4213 137.828 23.5608 137.828 23.7249C137.828 23.8661 137.876 23.9833 137.969 24.0751C138.062 24.167 138.302 24.2612 138.692 24.3569C139.082 24.4534 139.35 24.5378 139.495 24.6096C139.705 24.7148 139.861 24.8483 139.961 25.0106C140.062 25.1725 140.111 25.3595 140.111 25.5714C140.111 25.782 140.057 25.9792 139.946 26.1647C139.836 26.3507 139.678 26.4952 139.471 26.5983C139.264 26.7015 139.032 26.7529 138.773 26.7529C138.446 26.7529 138.172 26.7001 137.95 26.596C137.728 26.4925 137.556 26.336 137.429 26.1265C137.303 25.9176 137.238 25.6811 137.23 25.4167L137.231 25.417Z" fill="#2B2A29"/>
<path fill-rule="evenodd" clip-rule="evenodd" d="M141.41 25.0644H142.646L142.268 23.968C142.154 23.6354 142.068 23.3603 142.008 23.1429C141.958 23.4006 141.892 23.6533 141.808 23.9042L141.41 25.0644ZM140.367 26.687L141.758 22.7344H142.286L143.761 26.687H143.216L142.796 25.4891H141.27L140.877 26.687H140.367Z" fill="#2B2A29"/>
<path fill-rule="evenodd" clip-rule="evenodd" d="M144.633 24.4789H145.663C145.882 24.4789 146.053 24.4536 146.176 24.4037C146.299 24.3549 146.393 24.2765 146.456 24.1668C146.52 24.0582 146.552 23.9405 146.552 23.8126C146.552 23.6261 146.491 23.4711 146.366 23.3505C146.242 23.2301 146.047 23.1701 145.779 23.1701H144.633V24.4788L144.633 24.4789ZM144.153 26.6868V22.7344H145.759C146.083 22.7344 146.328 22.7701 146.496 22.8408C146.664 22.9119 146.798 23.0368 146.898 23.2166C146.999 23.3952 147.048 23.5948 147.048 23.8115C147.048 24.0922 146.965 24.3287 146.799 24.5208C146.632 24.7134 146.376 24.8351 146.028 24.8872C146.156 24.9532 146.252 25.0199 146.318 25.0837C146.458 25.2238 146.591 25.3997 146.714 25.6103L147.341 26.6865H146.742L146.263 25.8641C146.124 25.6261 146.008 25.445 145.918 25.3184C145.826 25.1923 145.745 25.105 145.674 25.0546C145.603 25.0047 145.53 24.97 145.455 24.9498C145.401 24.9374 145.312 24.9312 145.188 24.9312H144.633V26.6865H144.152L144.153 26.6868Z" fill="#2B2A29"/>
<path fill-rule="evenodd" clip-rule="evenodd" d="M147.879 22.7344H148.36V26.6874H147.879V22.7344Z" fill="#2B2A29"/>
</svg>
