<svg width="126" height="36" viewBox="0 0 126 36" fill="none" xmlns="http://www.w3.org/2000/svg">
<path d="M75.2742 13.1362V23.5728H72.8594V13.174C73.0684 13.64 73.5266 13.9656 74.0584 13.9656C74.6053 13.9656 75.0736 13.6238 75.2742 13.1362Z" fill="#333333"/>
<path d="M84.2267 14.8789C84.1598 14.8663 84.026 14.8555 83.827 14.8429C83.6263 14.8303 83.3939 14.8465 83.128 14.8879C82.8621 14.9293 82.5727 15.0156 82.2617 15.147C81.9506 15.2783 81.6513 15.4762 81.362 15.7389C81.0961 15.989 80.892 16.2462 80.7532 16.5089C80.6144 16.7716 80.5124 16.9929 80.4455 17.1728V23.5704H77.9805V12.9251H80.3619V15.057C80.4171 14.8897 80.5341 14.6414 80.7114 14.314C80.8887 13.9848 81.1613 13.6771 81.5275 13.3911C81.8168 13.1644 82.1078 13.0097 82.4022 12.9251C82.6965 12.8423 82.9691 12.7974 83.2183 12.7902C83.4675 12.7848 83.6815 12.7992 83.8588 12.8351C84.0361 12.8711 84.1581 12.8945 84.225 12.9071V14.8789H84.2267Z" fill="#333333"/>
<path d="M92.1555 21.9244C91.9883 22.1637 91.7993 22.394 91.5886 22.6152C91.3779 22.8365 91.1304 23.0272 90.8478 23.1892C90.5651 23.3511 90.2424 23.4788 89.8812 23.5742C89.5199 23.6695 89.1069 23.7181 88.6403 23.7181C88.2406 23.7181 87.8593 23.6497 87.4997 23.5112C87.1385 23.3745 86.8224 23.1766 86.5498 22.9193C86.2773 22.662 86.0615 22.3544 85.901 21.9964C85.7404 21.6383 85.6602 21.2371 85.6602 20.7964C85.6602 20.379 85.7287 20.0102 85.8692 19.6935C86.008 19.3769 86.1853 19.1052 86.4027 18.8785C86.6184 18.6518 86.8609 18.4629 87.1268 18.3136C87.3927 18.1643 87.6603 18.0455 87.9262 17.9556C88.1921 17.8656 88.4396 17.7937 88.667 17.7397C88.8945 17.6857 89.0801 17.6407 89.2256 17.6048C89.7925 17.4734 90.3059 17.3691 90.7658 17.2917C91.2257 17.2144 91.6672 17.128 92.0903 17.0326C92.0903 16.7934 92.0602 16.5433 91.9983 16.2806C91.9365 16.018 91.8345 15.7787 91.6906 15.5646C91.5468 15.3505 91.3512 15.1706 91.107 15.0267C90.8628 14.8827 90.5518 14.8108 90.1738 14.8108C89.841 14.8108 89.5567 14.8737 89.3243 14.9997C89.0918 15.1256 88.8961 15.2803 88.7406 15.4656C88.5851 15.6509 88.468 15.8596 88.3911 16.0935C88.3125 16.3256 88.264 16.5505 88.2406 16.7664C87.8626 16.7304 87.4997 16.6944 87.1502 16.6584C86.8007 16.6225 86.4361 16.5937 86.0598 16.5685C86.115 16.0305 86.2488 15.5322 86.4595 15.0716C86.6702 14.6111 86.9562 14.2117 87.3174 13.8716C87.6787 13.5316 88.1035 13.2653 88.5918 13.0746C89.0801 12.8839 89.6303 12.7886 90.2407 12.7886C90.9063 12.7886 91.49 12.8983 91.99 13.1196C92.49 13.3409 92.9064 13.6306 93.2392 13.9886C93.572 14.3466 93.8246 14.7496 93.9968 15.1976C94.1691 15.6455 94.2543 16.0971 94.2543 16.5505V21.0662C94.2543 21.3055 94.3146 21.4854 94.4383 21.6042C94.5604 21.7229 94.7025 21.7985 94.8631 21.829C95.0236 21.8596 95.1858 21.856 95.3464 21.82C95.5069 21.7841 95.6324 21.7301 95.721 21.6581V23.164H95.7377C95.5487 23.3439 95.343 23.4806 95.1206 23.576C94.8982 23.6713 94.6156 23.7199 94.2711 23.7199C93.9383 23.7199 93.649 23.6533 93.4048 23.522C93.1606 23.3907 92.9516 23.2323 92.7793 23.047C92.6071 22.8617 92.4683 22.6656 92.3629 22.4551C92.2576 22.2428 92.189 22.0665 92.1555 21.9244ZM88.0566 20.3826C88.0566 20.7532 88.157 21.0482 88.356 21.2695C88.5567 21.4908 88.8058 21.6401 89.1052 21.7175C89.4045 21.7949 89.724 21.8021 90.0634 21.7355C90.4013 21.6707 90.7039 21.5286 90.9715 21.3145C91.4147 20.9673 91.7124 20.5769 91.8629 20.1415C92.0134 19.7061 92.0887 19.1538 92.0887 18.4845C91.6672 18.6159 91.219 18.7148 90.7474 18.7796C90.2758 18.8461 89.8393 18.9343 89.4397 19.0476C89.04 19.161 88.7088 19.3157 88.448 19.5136C88.1871 19.7115 88.0566 20.0012 88.0566 20.3826Z" fill="#333333"/>
<path d="M102.337 21.7085C103.036 21.7085 103.603 21.4728 104.036 21.0015C104.469 20.5301 104.758 19.9346 104.902 19.2186L106.867 19.4524C106.767 20.0623 106.598 20.6254 106.359 21.1454C106.12 21.6653 105.804 22.1133 105.409 22.4893C105.014 22.8653 104.548 23.1622 104.009 23.3763C103.471 23.5904 102.852 23.6983 102.151 23.6983C101.429 23.6983 100.771 23.5616 100.176 23.2863C99.5807 23.0111 99.069 22.6296 98.6375 22.1403C98.2077 21.6509 97.8716 21.0734 97.6308 20.4114C97.3899 19.7475 97.2695 19.0278 97.2695 18.2524C97.2695 17.5004 97.3899 16.7898 97.6308 16.1205C97.8716 15.4512 98.2094 14.8719 98.6459 14.3826C99.0824 13.8932 99.5974 13.5046 100.193 13.2186C100.788 12.9325 101.44 12.7886 102.151 12.7886C102.807 12.7886 103.404 12.9019 103.942 13.1286C104.481 13.3553 104.952 13.6701 105.359 14.0695C105.763 14.4707 106.098 14.9421 106.359 15.4854C106.62 16.0288 106.794 16.6171 106.884 17.2503L104.936 17.4482C104.825 16.6476 104.546 16.0036 104.103 15.5124C103.658 15.0231 103.069 14.7784 102.337 14.7784C101.882 14.7784 101.487 14.8647 101.154 15.0374C100.822 15.2102 100.541 15.453 100.313 15.7625C100.086 16.0737 99.9152 16.4371 99.8048 16.8563C99.6944 17.2755 99.6376 17.7343 99.6376 18.2362C99.6376 18.7256 99.6978 19.1826 99.8215 19.6072C99.9436 20.0317 100.121 20.3988 100.355 20.71C100.587 21.0212 100.872 21.2659 101.205 21.444C101.537 21.6185 101.914 21.7085 102.337 21.7085Z" fill="#333333"/>
<path d="M112.064 21.3309C112.186 21.4748 112.347 21.5576 112.547 21.581C112.746 21.6044 112.95 21.6044 113.156 21.581C113.362 21.5576 113.556 21.5126 113.74 21.4461C113.924 21.3813 114.064 21.3291 114.165 21.2931V23.139C113.976 23.2829 113.77 23.3927 113.547 23.47C113.325 23.5474 113.114 23.605 112.914 23.641C112.681 23.6877 112.447 23.7129 112.215 23.7129C111.837 23.7129 111.507 23.6715 111.223 23.587C110.94 23.5042 110.696 23.3927 110.49 23.256C110.285 23.1192 110.112 22.9609 109.974 22.781C109.835 22.6011 109.721 22.4176 109.632 22.2251C109.432 21.7951 109.326 21.2985 109.316 20.7372V9.32373H111.781C111.781 9.7771 111.785 10.36 111.79 11.0707C111.795 11.7813 111.802 12.5405 111.807 13.3465C111.812 14.1525 111.818 14.9675 111.823 15.7933C111.828 16.6173 111.832 17.3729 111.832 18.0602C111.832 18.7474 111.832 19.3231 111.832 19.7891C111.832 20.2551 111.832 20.5303 111.832 20.6131C111.832 20.685 111.843 20.793 111.865 20.9351C111.885 21.0808 111.952 21.2122 112.064 21.3309Z" fill="#333333"/>
<path d="M125.427 18.2656C125.427 18.361 125.427 18.451 125.427 18.5337C125.427 18.6183 125.422 18.701 125.41 18.7838H118.147C118.236 19.6438 118.508 20.331 118.963 20.8456C119.418 21.3601 120.045 21.6156 120.846 21.6156C121.48 21.6156 121.985 21.4626 122.361 21.1586C122.739 20.8545 123.039 20.4156 123.261 19.8417L125.178 20.1277C125.044 20.6656 124.845 21.1514 124.577 21.5886C124.311 22.024 123.984 22.4018 123.594 22.7166C123.204 23.0333 122.756 23.2779 122.244 23.4506C121.734 23.6234 121.172 23.7097 120.562 23.7097C119.896 23.7097 119.267 23.5874 118.679 23.3427C118.09 23.098 117.58 22.7418 117.147 22.2758C116.714 21.8099 116.369 21.2396 116.113 20.5649C115.858 19.8902 115.73 19.122 115.73 18.262C115.73 17.4489 115.856 16.7058 116.105 16.0312C116.354 15.3565 116.702 14.779 117.147 14.3022C117.59 13.8237 118.11 13.4549 118.704 13.1904C119.298 12.9277 119.94 12.7964 120.627 12.7964C121.426 12.7964 122.126 12.9403 122.726 13.2264C123.326 13.5124 123.825 13.901 124.224 14.3904C124.624 14.8797 124.923 15.4573 125.124 16.1193C125.326 16.7868 125.427 17.501 125.427 18.2656ZM123.244 17.1718C123.122 16.4558 122.85 15.8603 122.428 15.3889C122.007 14.9175 121.44 14.6818 120.729 14.6818C119.997 14.6818 119.421 14.9175 119.005 15.3889C118.589 15.8603 118.319 16.4558 118.197 17.1718H123.244Z" fill="#333333"/>
<path d="M67.4215 13.8947L63.6353 20.6161H62.2071L58.4209 13.8767V23.5576H55.9141V9.33936H58.8373L62.9229 17.4515L67.0251 9.33936H69.9317V23.5594H67.4248V13.8947H67.4215Z" fill="#333333"/>
<path d="M75.0091 10.9759C74.7666 11.2296 74.2498 12.2029 74.0759 12.7786C73.9003 12.2011 73.3769 11.2332 73.1494 10.9688C73.4504 11.0875 73.8133 11.2332 74.0726 11.3717C74.3368 11.2332 74.7432 11.0857 74.9991 10.9795C75.0024 10.9795 75.0057 10.9777 75.0091 10.9759Z" fill="#333333"/>
<path d="M73.1494 10.2714C73.3919 10.0178 73.9087 9.04446 74.0826 8.46875C74.2582 9.04626 74.7816 10.0142 75.0091 10.2786C74.7081 10.1599 74.3452 10.0142 74.0859 9.87564C73.8217 10.0142 73.4153 10.1617 73.1594 10.2678C73.1561 10.2678 73.1511 10.2696 73.1494 10.2714Z" fill="#333333"/>
<path d="M73.7499 11.6256C73.5141 11.3647 72.6094 10.8088 72.0742 10.6217C72.611 10.4328 73.5108 9.86968 73.7566 9.625C73.6462 9.94884 73.5108 10.3392 73.382 10.6181C73.5108 10.9024 73.6479 11.3395 73.7466 11.6148C73.7466 11.6184 73.7482 11.622 73.7499 11.6256Z" fill="#333333"/>
<path d="M74.4051 9.62109C74.6409 9.88196 75.5457 10.4379 76.0808 10.625C75.544 10.8139 74.6443 11.377 74.3984 11.6217C74.5088 11.2979 74.6443 10.9074 74.773 10.6286C74.6443 10.3443 74.5071 9.90715 74.4085 9.63189C74.4068 9.62829 74.4051 9.62469 74.4051 9.62109Z" fill="#333333"/>
<path d="M74.0495 11.4087C74.4522 11.4087 74.7786 11.0575 74.7786 10.6243C74.7786 10.191 74.4522 9.83984 74.0495 9.83984C73.6468 9.83984 73.3203 10.191 73.3203 10.6243C73.3203 11.0575 73.6468 11.4087 74.0495 11.4087Z" fill="#333333"/>
<path d="M59.0543 30.0689H56.8869L56.4973 31.0188H56.0156L57.7298 26.8359H58.2114L59.9256 31.0188H59.4439L59.0543 30.0689ZM58.872 29.6191L57.9723 27.4206L57.0659 29.6191H58.872Z" fill="#0078D6"/>
<path d="M64.1338 28.9263C64.1338 27.7515 65.0502 26.7656 66.1256 26.7656C66.6624 26.7656 67.1608 27.0085 67.5237 27.4043L67.2243 27.7335C66.9417 27.4115 66.5503 27.2046 66.1256 27.2046C65.2877 27.2046 64.5803 27.9962 64.5803 28.9281C64.5803 29.8655 65.2877 30.6571 66.1256 30.6571C66.5503 30.6571 66.94 30.4502 67.2243 30.1281L67.5237 30.4574C67.1608 30.8478 66.6641 31.0961 66.1256 31.0961C65.0502 31.0943 64.1338 30.1012 64.1338 28.9263Z" fill="#0078D6"/>
<path d="M74.6441 30.0689H72.4768L72.0871 31.0188H71.6055L73.3196 26.8359H73.8013L75.5154 31.0188H75.0338L74.6441 30.0689ZM74.4635 29.6191L73.5638 27.4206L72.6574 29.6191H74.4635Z" fill="#0078D6"/>
<path d="M79.9648 26.8359H81.2776C82.5118 26.8359 83.3831 27.7013 83.3831 28.9247C83.3831 30.1481 82.5118 31.0188 81.2776 31.0188H79.9648V26.8359ZM81.2776 30.5871C82.2509 30.5871 82.9366 29.8998 82.9366 28.9247C82.9366 27.9568 82.2526 27.2677 81.2776 27.2677H80.4063V30.5853H81.2776V30.5871Z" fill="#0078D6"/>
<path d="M88.3801 27.2875V28.6638H90.4906V29.1136H88.3801V30.5691H90.7231V31.0188H87.9336V26.8359H90.7231V27.2857H88.3801V27.2875Z" fill="#0078D6"/>
<path d="M95.3047 26.8359H95.7462L97.1894 29.7523L98.6327 26.8359H99.0742V31.0188H98.6327V27.8578L97.1894 30.7742L95.7462 27.8578V31.0188H95.3047V26.8359Z" fill="#0078D6"/>
<path d="M105.01 29.3133L103.441 26.8359H103.99L105.241 28.8635L106.503 26.8359H107.035L105.473 29.3133V31.0188H105.01V29.3133Z" fill="#0078D6"/>
<path d="M17.8853 32.8018C17.8786 32.7982 17.8703 32.7946 17.8636 32.791H17.8619C17.8552 32.7892 17.8485 32.7856 17.8418 32.782C17.8268 32.7748 17.8134 32.7676 17.8 32.7604C17.4254 32.5769 17.0542 32.397 16.6846 32.2261C17.0207 32.3592 17.3468 32.5013 17.6629 32.6489C17.6746 32.6543 17.6863 32.6597 17.6997 32.6669C17.7315 32.6813 17.7632 32.6974 17.795 32.7118H17.7967C17.8034 32.7136 17.8101 32.7172 17.8184 32.7208C17.8285 32.7334 17.8402 32.7478 17.8519 32.7604C17.8602 32.773 17.8719 32.7892 17.8853 32.8018Z" fill="url(#paint0_linear)"/>
<path d="M34.4054 12.3203C32.7832 12.7737 31.1008 13.326 29.3633 14.0025C31.034 13.3098 32.7096 12.7647 34.4054 12.3203Z" fill="url(#paint1_linear)"/>
<path d="M17.8974 32.8309C17.869 32.8165 17.8389 32.8021 17.8122 32.7895C17.7637 32.7661 17.7152 32.7409 17.665 32.7175C17.3406 32.5574 17.0178 32.4045 16.695 32.2552C13.6162 30.8339 10.6027 29.8767 7.66603 29.4648C7.66269 29.4558 7.65934 29.445 7.656 29.436C6.12079 24.8537 4.59059 20.5916 3.07544 16.9646C2.68244 16.0201 2.28777 15.1205 1.89644 14.2696C1.85798 14.1832 1.81784 14.0986 1.7777 14.0123C1.66566 13.773 1.55528 13.5391 1.44323 13.307C1.36965 13.1523 1.29607 13.0012 1.22081 12.8519H1.21914C1.10208 12.6144 0.985012 12.3805 0.867947 12.152C0.809415 12.0387 0.752556 11.9271 0.694023 11.8156C0.51341 11.4702 0.332797 11.1373 0.152183 10.8153C0.102013 10.7253 0.0518427 10.6354 0 10.5472H0.00334469C0.0986684 10.5436 0.195664 10.5382 0.294333 10.5364C0.369588 10.5346 0.446516 10.5328 0.523444 10.5328C0.831156 10.5292 1.14221 10.5346 1.45829 10.5472C3.02026 10.6138 6.43351 11.1805 6.44857 11.1823L6.4887 11.328L10.2314 25.8432L10.2381 25.8684L10.2582 25.9493C12.1479 27.1385 13.9122 28.603 15.5812 30.2869C15.5963 30.3031 15.6113 30.3193 15.6264 30.3337C16.3672 31.0839 17.088 31.8773 17.7921 32.7103H17.7938C17.8055 32.7229 17.8172 32.7373 17.8289 32.7499C17.8389 32.7625 17.8506 32.7751 17.8623 32.7895H17.864C17.8707 32.7967 17.8774 32.8057 17.8857 32.8147C17.8874 32.8201 17.8924 32.8255 17.8974 32.8309Z" fill="#2D3BA3"/>
<path d="M6.45024 11.1826C6.43519 11.1808 3.02193 10.6122 1.45996 10.5475C1.14556 10.5349 0.832828 10.5295 0.525117 10.5331C0.444844 10.5241 0.364571 10.5169 0.284299 10.5079C0.188975 10.5097 0.0936514 10.5133 0 10.5169L3.95677 1.26953L6.45024 11.1826Z" fill="#D4F0FF"/>
<path d="M3.93359 1.17969L3.95701 1.26964V1.27144L6.45047 11.1845C7.76159 11.4238 9.12121 11.7116 10.526 12.0714C11.4274 12.3035 12.3488 12.5662 13.2904 12.863C13.3338 12.8774 13.379 12.89 13.4225 12.9044C13.6115 12.9656 13.8004 13.0268 13.9894 13.0897C14.1717 13.1491 14.3523 13.2121 14.5346 13.275C15.247 13.5197 15.9678 13.786 16.7003 14.0738C13.2235 9.07413 8.91384 4.82826 3.93359 1.17969Z" fill="#2D3BA3"/>
<path d="M20.8749 33.3161C20.6307 33.5302 20.4166 33.7821 20.2411 34.0609C19.4768 33.5986 18.6874 33.183 17.8847 32.8178C17.878 32.8088 17.8713 32.8016 17.863 32.7926C17.8697 32.7962 17.878 32.7998 17.8847 32.8034C17.8713 32.7908 17.8596 32.7746 17.8479 32.762C17.8379 32.7494 17.8262 32.735 17.8145 32.7224C17.0987 31.8768 16.3662 31.069 15.6137 30.3044C15.5986 30.29 15.5836 30.2738 15.5685 30.2576C13.9397 28.5863 12.187 27.2208 10.2588 25.9488L6.48935 11.3293L6.44922 11.1836C7.76034 11.4229 9.11995 11.7107 10.5247 12.0705L13.2021 24.702C15.5852 26.1989 16.6756 27.7803 20.8749 33.3161Z" fill="#D4F0FF"/>
<path opacity="0.2" d="M22.9179 35.9913C22.9113 35.9878 22.9062 35.9824 22.9012 35.977C22.8996 35.977 22.8979 35.9752 22.8962 35.9734C22.0717 35.2645 21.177 34.624 20.2422 34.0573C20.4178 33.7767 20.6318 33.5248 20.876 33.3125C21.4831 34.1113 22.152 34.9929 22.9029 35.968C22.9046 35.9698 22.9046 35.9716 22.9062 35.9734C22.9096 35.9806 22.9146 35.986 22.9179 35.9913Z" fill="url(#paint2_linear)"/>
<path opacity="0.2" d="M22.9218 35.996C22.9199 35.9941 22.9199 35.9941 22.918 35.9922C22.9199 35.9922 22.9199 35.9922 22.9199 35.9922C22.918 35.9922 22.9199 35.9941 22.9218 35.996Z" fill="url(#paint3_linear)"/>
<path d="M29.1723 14.0942C27.5518 15.7961 24.0649 22.3323 22.9077 26.1949C21.7303 22.3323 18.2268 15.8411 16.6982 14.0708C18.7184 14.866 21.1467 15.8411 22.8776 16.773C24.6502 15.8429 27.3645 14.857 29.0853 14.1464C29.107 14.1374 29.1505 14.105 29.1723 14.0942Z" fill="#0078D6"/>
<path d="M25.2147 6.42815C24.5943 7.07942 23.2681 9.57117 22.8249 11.0482C22.3751 9.57117 21.0338 7.08662 20.4502 6.41016C21.2228 6.7142 22.1526 7.08662 22.8132 7.44284C23.4922 7.08662 24.529 6.71061 25.1879 6.43894C25.1963 6.43534 25.2063 6.43175 25.2147 6.42815Z" fill="#0078D6"/>
<path d="M20.4502 4.62008C21.069 3.96881 22.3951 1.47706 22.8383 0C23.2882 1.47706 24.6294 3.96161 25.213 4.63808C24.4404 4.33403 23.5106 3.96161 22.85 3.60539C22.171 3.96161 21.1342 4.33763 20.4753 4.60929C20.4669 4.61289 20.4586 4.61649 20.4502 4.62008Z" fill="#0078D6"/>
<path d="M21.9909 8.08657C21.3855 7.41911 19.0693 5.99242 17.6963 5.51566C19.0693 5.0317 21.3788 3.58882 22.0076 2.96094C21.725 3.79212 21.3788 4.79242 21.0477 5.50306C21.3788 6.2335 21.7283 7.34894 21.9808 8.05779C21.9842 8.06678 21.9875 8.07578 21.9909 8.08657Z" fill="#0078D6"/>
<path d="M23.67 2.96094C24.2754 3.6284 26.5916 5.05509 27.9646 5.53185C26.5916 6.01581 24.2821 7.45868 23.6533 8.08657C23.9359 7.25539 24.2821 6.25509 24.6132 5.54444C24.2821 4.81401 23.9326 3.69857 23.6801 2.98972C23.6767 2.98073 23.6734 2.97173 23.67 2.96094Z" fill="#0078D6"/>
<path d="M45.9046 10.5554C45.8929 10.577 45.8795 10.5986 45.8678 10.6202C44.0784 13.7596 42.2639 18.126 40.4343 23.1635C39.7336 25.0957 39.0296 27.1251 38.3238 29.2246C38.2971 29.3074 38.2687 29.3902 38.2402 29.4729C37.0094 29.6456 35.7635 29.9155 34.5042 30.2753C34.4908 30.2771 34.4775 30.2825 34.4624 30.2879C33.8453 30.4642 33.2232 30.6621 32.5994 30.8834C32.5911 30.8852 32.5844 30.8888 32.5777 30.8906C31.8469 31.1479 31.1127 31.4339 30.3735 31.7488C29.7899 31.9971 29.1059 32.2633 28.5155 32.5458C28.5155 32.5458 28.5139 32.5458 28.5139 32.5476C28.5022 32.553 28.4888 32.5602 28.4754 32.5656C28.4085 32.598 28.3416 32.6303 28.2731 32.6627C28.1811 32.7077 28.0891 32.7527 27.9971 32.7977C27.9687 32.812 27.9386 32.8192 27.9102 32.8336C27.9202 32.8228 27.9286 32.812 27.9369 32.8031C27.9403 32.7995 27.9436 32.7959 27.9469 32.7923C27.9804 32.7527 28.0122 32.7221 28.0456 32.6843C30.3401 29.9803 32.9121 27.6774 35.6464 25.9575L39.4192 11.3236L39.4493 11.1851C39.4861 11.1779 43.0047 10.604 44.5901 10.55C44.9146 10.5392 45.234 10.5356 45.5501 10.5428C45.6471 10.5446 45.744 10.5482 45.8394 10.5518C45.8611 10.5536 45.8812 10.5536 45.9046 10.5554Z" fill="#2D3BA3"/>
<path d="M45.8432 10.5539C45.7478 10.5503 45.6508 10.5467 45.5538 10.5449C45.2378 10.5377 44.9184 10.5413 44.5939 10.5521C43.0085 10.606 39.4899 11.1799 39.4531 11.1871L41.9299 1.30469L45.8432 10.5539Z" fill="#D4F0FF"/>
<path d="M37.0185 5.20558C37.0168 5.20738 37.0185 5.20558 37.0185 5.20558C34.2307 7.78189 31.3476 10.9681 29.1719 14.0967C29.2254 14.0751 29.299 14.0302 29.3525 14.0104C29.3558 14.0086 29.3575 14.0086 29.3609 14.0068C31.0984 13.3285 32.7808 12.7762 34.403 12.3246C34.4097 12.3228 34.4147 12.321 34.4197 12.321C34.704 12.2419 34.9883 12.1645 35.2692 12.0925C36.7125 11.7201 38.1072 11.4323 39.4501 11.1876L41.9269 1.30514L41.9586 1.1792C40.3599 2.34681 38.4718 3.90483 37.0185 5.20558Z" fill="#2D3BA3"/>
<path d="M39.449 11.1875L39.4189 11.326L35.6461 25.9599C32.9118 27.6798 30.3397 29.9827 28.0453 32.6867C28.0118 32.7245 27.98 32.7569 27.9466 32.7947C27.9433 32.7983 27.9399 32.8019 27.9366 32.8055C27.1305 33.1725 26.3361 33.5881 25.5702 34.0523C25.3913 33.7698 25.1755 33.5179 24.9297 33.3056C29.1223 27.777 30.2143 26.1974 32.594 24.7005L35.2681 12.0924C36.713 11.7182 38.1061 11.4322 39.449 11.1875Z" fill="#D4F0FF"/>
<path opacity="0.2" d="M25.5753 34.0513C24.6338 34.6198 23.7357 35.2621 22.9079 35.9746C22.9062 35.9746 22.9046 35.9764 22.9046 35.9782C22.9012 35.98 22.8995 35.9818 22.8962 35.9854C22.8928 35.989 22.8878 35.9926 22.8828 35.9961C22.8862 35.9926 22.8895 35.9872 22.8928 35.9836C22.8945 35.9818 22.8979 35.9782 22.8995 35.9746C22.9012 35.9728 22.9029 35.971 22.9046 35.9692C23.6554 34.9904 24.3277 34.1053 24.9365 33.3047C25.1823 33.5188 25.398 33.7707 25.5753 34.0513Z" fill="url(#paint4_linear)"/>
<path d="M25.5864 34.068C25.5279 34.1058 25.466 34.1435 25.4008 34.1867C25.3941 34.1903 25.3874 34.1939 25.3807 34.1993C24.4576 34.7984 23.0545 35.8905 22.9224 35.993H22.9207C22.9174 35.9966 22.9157 35.9984 22.914 35.9984C22.9124 35.9984 22.9124 35.9984 22.9124 35.9984C22.9107 35.9966 22.904 35.993 22.8956 35.9858C22.8956 35.9858 22.894 35.984 22.8923 35.984C22.705 35.8437 21.2684 34.766 20.2383 34.068C20.24 34.0644 20.2416 34.0626 20.2433 34.059C20.4189 33.7783 20.633 33.5265 20.8771 33.3142C21.4307 32.8284 22.1397 32.5352 22.9124 32.5352C23.68 32.5352 24.3824 32.823 24.9359 33.3052C25.1817 33.5193 25.3975 33.7711 25.5764 34.0518C25.5781 34.0554 25.5831 34.0626 25.5864 34.068Z" fill="#0078D6"/>
<defs>
<linearGradient id="paint0_linear" x1="16.8097" y1="32.6697" x2="17.7704" y2="32.3967" gradientUnits="userSpaceOnUse">
<stop offset="0.00328407" stop-color="white" stop-opacity="0"/>
<stop offset="0.0407" stop-color="#E5EAFB" stop-opacity="0.0772"/>
<stop offset="0.1898" stop-color="#849CEB" stop-opacity="0.3844"/>
<stop offset="0.3104" stop-color="#3D63E0" stop-opacity="0.6329"/>
<stop offset="0.3965" stop-color="#1140D9" stop-opacity="0.8104"/>
<stop offset="0.44" stop-color="#0032D6" stop-opacity="0.9"/>
</linearGradient>
<linearGradient id="paint1_linear" x1="33.8201" y1="13.9616" x2="29.8804" y2="12.5558" gradientUnits="userSpaceOnUse">
<stop offset="0.00328407" stop-color="white" stop-opacity="0"/>
<stop offset="0.0412" stop-color="#E5EAFB" stop-opacity="0.0772"/>
<stop offset="0.192" stop-color="#849CEB" stop-opacity="0.3844"/>
<stop offset="0.3139" stop-color="#3D63E0" stop-opacity="0.6329"/>
<stop offset="0.401" stop-color="#1140D9" stop-opacity="0.8104"/>
<stop offset="0.445" stop-color="#0032D6" stop-opacity="0.9"/>
</linearGradient>
<linearGradient id="paint2_linear" x1="23.2035" y1="35.1922" x2="20.2168" y2="34.1264" gradientUnits="userSpaceOnUse">
<stop offset="0.00328407" stop-color="white" stop-opacity="0"/>
<stop offset="0.0576" stop-color="#BBDCF0" stop-opacity="0.2975"/>
<stop offset="0.1191" stop-color="#75B8E1" stop-opacity="0.6341"/>
<stop offset="0.1635" stop-color="#49A2D8" stop-opacity="0.8772"/>
<stop offset="0.1859" stop-color="#3899D4"/>
</linearGradient>
<linearGradient id="paint3_linear" x1="22.9214" y1="35.9942" x2="22.9158" y2="35.9921" gradientUnits="userSpaceOnUse">
<stop offset="0.00328407" stop-color="white" stop-opacity="0"/>
<stop offset="0.0576" stop-color="#BBDCF0" stop-opacity="0.2975"/>
<stop offset="0.1191" stop-color="#75B8E1" stop-opacity="0.6341"/>
<stop offset="0.1635" stop-color="#49A2D8" stop-opacity="0.8772"/>
<stop offset="0.1859" stop-color="#3899D4"/>
</linearGradient>
<linearGradient id="paint4_linear" x1="25.1757" y1="35.1742" x2="23.4018" y2="34.5413" gradientUnits="userSpaceOnUse">
<stop offset="0.00328407" stop-color="white" stop-opacity="0"/>
<stop offset="0.0576" stop-color="#BBDCF0" stop-opacity="0.2975"/>
<stop offset="0.1191" stop-color="#75B8E1" stop-opacity="0.6341"/>
<stop offset="0.1635" stop-color="#49A2D8" stop-opacity="0.8772"/>
<stop offset="0.1859" stop-color="#3899D4"/>
</linearGradient>
</defs>
</svg>
