<svg width="94" height="36" viewBox="0 0 94 36" fill="none" xmlns="http://www.w3.org/2000/svg">
<path d="M58.1603 4.57751C58.1603 4.39985 58.2397 4.31299 58.3985 4.31299H59.1848C59.2364 4.31299 59.292 4.32878 59.3436 4.35642C59.3953 4.38405 59.4429 4.43933 59.4826 4.52224L63.0843 11.5814L63.3146 12.2644L63.2431 11.5735L63.1835 4.57751C63.1835 4.5025 63.2034 4.43933 63.2431 4.388C63.2828 4.33668 63.3464 4.31299 63.4258 4.31299H64.2358C64.3034 4.31299 64.3589 4.33273 64.4026 4.37221C64.4463 4.41169 64.4662 4.47881 64.4662 4.56961V14.3016C64.4662 14.4754 64.3828 14.5622 64.212 14.5622H63.4456C63.394 14.5622 63.3384 14.5504 63.2789 14.5227C63.2193 14.4951 63.1756 14.4438 63.1399 14.3609L59.562 7.40434L59.3079 6.70158L59.3873 7.41224L59.431 14.2977C59.431 14.4754 59.3555 14.5622 59.2007 14.5622H58.3906C58.2318 14.5622 58.1523 14.4754 58.1523 14.2977V4.57751H58.1603Z" fill="#565756"/>
<path d="M72.8442 14.2929C72.872 14.3758 72.868 14.4389 72.8323 14.4903C72.7965 14.5416 72.7409 14.5653 72.6694 14.5653H71.7363C71.6846 14.5653 71.6291 14.5495 71.5774 14.5218C71.5258 14.4942 71.4901 14.4389 71.4702 14.356L70.9858 12.4649H67.8606L67.3841 14.356C67.3642 14.4389 67.3285 14.4942 67.2769 14.5218C67.2253 14.5495 67.1697 14.5653 67.118 14.5653H66.1849C66.1134 14.5653 66.0578 14.5416 66.026 14.4903C65.9903 14.4389 65.9863 14.3758 66.0101 14.2929L68.766 4.52924C68.7898 4.44633 68.8255 4.39106 68.8692 4.35552C68.9169 4.32394 68.9685 4.3042 69.0241 4.3042H69.8262C69.8858 4.3042 69.9374 4.31999 69.9851 4.35552C70.0327 4.38711 70.0685 4.44633 70.0923 4.52924L72.8442 14.2929ZM68.1743 11.2568H70.684L69.5403 6.75596L69.4331 5.99398L69.3259 6.75596L68.1743 11.2568Z" fill="#565756"/>
<path d="M77.022 4.56917C77.022 4.47441 77.0458 4.4073 77.0935 4.36782C77.1411 4.32833 77.1927 4.30859 77.2444 4.30859H78.11C78.2053 4.30859 78.2728 4.33228 78.3086 4.38361C78.3443 4.43493 78.3642 4.506 78.3642 4.5968L78.3562 12.1969C78.3562 12.5798 78.2887 12.9273 78.1577 13.2392C78.0267 13.5511 77.844 13.8156 77.6176 14.0327C77.3913 14.2499 77.1252 14.4196 76.8155 14.5381C76.5058 14.6565 76.1762 14.7197 75.8267 14.7197C75.4495 14.7197 75.0921 14.6486 74.7466 14.5065C74.4012 14.3644 74.1192 14.1749 73.8968 13.934C73.8492 13.8866 73.8095 13.8235 73.7817 13.7485C73.7539 13.6734 73.7737 13.5984 73.8413 13.5313L74.3098 12.9865C74.3773 12.9194 74.4448 12.8917 74.5084 12.9075C74.5719 12.9233 74.6315 12.9588 74.6871 13.0141C74.7943 13.1128 74.9372 13.2115 75.1239 13.3063C75.3105 13.401 75.521 13.4484 75.7632 13.4484C75.9459 13.4484 76.1166 13.4129 76.2675 13.3458C76.4224 13.2747 76.5534 13.1799 76.6646 13.0536C76.7758 12.9273 76.8632 12.7772 76.9267 12.5996C76.9902 12.4219 77.022 12.2285 77.022 12.0192V4.56917Z" fill="#565756"/>
<path d="M80.0771 7.61893C80.0771 7.14516 80.1447 6.69508 80.2797 6.27658C80.4147 5.85414 80.6172 5.48302 80.8833 5.16717C81.1493 4.84737 81.4829 4.59864 81.88 4.41308C82.2771 4.22752 82.7377 4.13672 83.2658 4.13672C83.786 4.13672 84.2467 4.22752 84.6438 4.41308C85.0409 4.59864 85.3784 4.84737 85.6484 5.16322C85.9224 5.47907 86.1249 5.85019 86.2639 6.26869C86.4029 6.68718 86.4704 7.13726 86.4704 7.61103V11.2709C86.4704 11.7447 86.4029 12.1948 86.2639 12.6133C86.1249 13.0357 85.9224 13.4029 85.6524 13.7187C85.3824 14.0346 85.0488 14.2872 84.6477 14.4689C84.2467 14.6544 83.786 14.7452 83.2658 14.7452C82.7456 14.7452 82.289 14.6544 81.8919 14.4689C81.4948 14.2833 81.1652 14.0346 80.8952 13.7187C80.6251 13.4029 80.4226 13.0318 80.2836 12.6133C80.1447 12.1908 80.0771 11.7447 80.0771 11.2709V7.61893ZM81.4114 11.3578C81.4114 11.6539 81.4511 11.9342 81.5305 12.1908C81.6099 12.4514 81.7291 12.6725 81.8839 12.862C82.0388 13.0515 82.2334 13.2015 82.4637 13.3121C82.694 13.4226 82.9601 13.4779 83.2619 13.4779C83.5637 13.4779 83.8337 13.4226 84.064 13.3121C84.2943 13.2015 84.4889 13.0515 84.6477 12.862C84.8066 12.6725 84.9257 12.4514 85.0051 12.1948C85.0845 11.9381 85.1243 11.6618 85.1243 11.3657V7.52023C85.1243 7.22807 85.0845 6.9517 85.0012 6.69903C84.9178 6.4424 84.7986 6.21736 84.6438 6.02785C84.4889 5.8344 84.2943 5.68437 84.06 5.56987C83.8297 5.45933 83.5597 5.40011 83.2579 5.40011C82.9601 5.40011 82.694 5.45538 82.4637 5.56593C82.2334 5.67647 82.0388 5.8265 81.88 6.01996C81.7251 6.21341 81.606 6.43845 81.5266 6.69508C81.4471 6.95565 81.4074 7.22807 81.4074 7.52023V11.3578H81.4114Z" fill="#565756"/>
<path d="M87.4132 4.55822C87.4132 4.47531 87.433 4.41608 87.4727 4.3766C87.5124 4.33712 87.564 4.31738 87.6276 4.31738H93.4252C93.4848 4.31738 93.5324 4.33712 93.5721 4.3766C93.6118 4.41608 93.6317 4.47925 93.6317 4.55822V5.35573C93.6317 5.43864 93.6118 5.49786 93.5721 5.53339C93.5324 5.56893 93.4808 5.58867 93.4252 5.58867H91.1895V14.3218C91.1895 14.4047 91.1697 14.464 91.13 14.5034C91.0903 14.5429 91.0426 14.5627 90.9791 14.5627H90.0697C90.0022 14.5627 89.9506 14.5429 89.9109 14.5034C89.8712 14.464 89.8513 14.4008 89.8513 14.3218V5.58472H87.6236C87.5601 5.58472 87.5085 5.56498 87.4687 5.52944C87.429 5.49391 87.4092 5.43469 87.4092 5.35178V4.55822H87.4132Z" fill="#565756"/>
<path d="M57.2657 18.0611C57.2657 17.9782 57.2855 17.919 57.3253 17.8795C57.365 17.8401 57.4166 17.8203 57.4801 17.8203H63.2777C63.3373 17.8203 63.3849 17.8401 63.4247 17.8795C63.4644 17.919 63.4842 17.9822 63.4842 18.0611V18.8587C63.4842 18.9416 63.4644 19.0008 63.4247 19.0363C63.3849 19.0719 63.3333 19.0916 63.2777 19.0916H61.0421V27.8248C61.0421 27.9077 61.0222 27.9669 60.9825 28.0064C60.9428 28.0459 60.8912 28.0656 60.8316 28.0656H59.9223C59.8548 28.0656 59.8031 28.0459 59.7634 28.0064C59.7237 27.9669 59.7039 27.9037 59.7039 27.8248V19.0876H57.4762C57.4126 19.0876 57.361 19.0679 57.3213 19.0324C57.2816 18.9968 57.2617 18.9376 57.2617 18.8547V18.0611H57.2657Z" fill="#565756"/>
<path d="M70.1498 27.7894C70.1776 27.8723 70.1736 27.9355 70.1379 27.9868C70.1022 28.0382 70.0466 28.0619 69.9751 28.0619H69.0419C68.9903 28.0619 68.9347 28.0461 68.8831 28.0184C68.8315 27.9908 68.7957 27.9355 68.7759 27.8526L68.2914 25.9615H65.1663L64.6898 27.8526C64.6699 27.9355 64.6342 27.9908 64.5825 28.0184C64.5309 28.0461 64.4753 28.0619 64.4237 28.0619H63.4905C63.419 28.0619 63.3635 28.0382 63.3317 27.9868C63.2959 27.9355 63.292 27.8723 63.3158 27.7894L66.0716 18.0258C66.0955 17.9429 66.1312 17.8876 66.1749 17.8521C66.2186 17.8205 66.2742 17.8008 66.3298 17.8008H67.1319C67.1915 17.8008 67.2431 17.8166 67.2907 17.8521C67.3384 17.8837 67.3741 17.9429 67.3979 18.0258L70.1498 27.7894ZM65.48 24.7573H67.9896L66.846 20.2565L66.7388 19.4945L66.6316 20.2565L65.48 24.7573Z" fill="#565756"/>
<path d="M71.2148 18.1321C71.2148 18.0413 71.2387 17.9663 71.2823 17.9149C71.33 17.8597 71.3975 17.832 71.4888 17.832H72.4141C72.5967 17.832 72.6881 17.9307 72.6881 18.1321V19.3599C72.6881 19.5139 72.6603 19.6442 72.6086 19.7508C72.557 19.8574 72.4855 19.9482 72.3942 20.0153C72.3068 20.0864 72.2036 20.1377 72.0884 20.1693C71.9733 20.2009 71.8542 20.2206 71.735 20.2206C71.5841 20.2206 71.5127 20.1614 71.5127 20.039V19.7429C71.5127 19.6837 71.5325 19.6442 71.5762 19.6205C71.6199 19.5968 71.6715 19.585 71.7271 19.585C71.7946 19.585 71.8423 19.5692 71.8701 19.5337C71.8978 19.5021 71.9098 19.4507 71.9098 19.3915C71.9098 19.3323 71.8978 19.2849 71.878 19.2573C71.8581 19.2297 71.8184 19.2178 71.7589 19.2178H71.461C71.3935 19.2178 71.334 19.1981 71.2863 19.1546C71.2387 19.1112 71.2148 19.0441 71.2148 18.9454V18.1321Z" fill="#565756"/>
<path d="M74.6719 18.077C74.6719 17.8994 74.7513 17.8125 74.9101 17.8125H75.7718C75.9307 17.8125 76.0101 17.9033 76.0101 18.077V26.7983H79.3854C79.4529 26.7983 79.5085 26.8181 79.5482 26.8536C79.5879 26.8891 79.6078 26.9484 79.6078 27.0313V27.8209C79.6078 27.9038 79.5879 27.963 79.5482 28.0025C79.5085 28.042 79.4529 28.0617 79.3854 28.0617H74.9101C74.7513 28.0617 74.6719 27.9749 74.6719 27.7972V18.077Z" fill="#565756"/>
<path d="M81.1914 18.077C81.1914 17.8994 81.2748 17.8125 81.4376 17.8125H82.2993C82.4542 17.8125 82.5296 17.9033 82.5296 18.077V27.7972C82.5296 27.9749 82.4542 28.0617 82.2993 28.0617H81.4376C81.2748 28.0617 81.1914 27.9749 81.1914 27.7972V18.077Z" fill="#565756"/>
<path d="M86.3702 20.9553L86.1081 20.0196L86.1955 20.9474L86.255 27.8052C86.263 27.9789 86.1915 28.0658 86.0366 28.0658H85.1908C85.1153 28.0658 85.0598 28.0421 85.032 27.9947C85.0042 27.9473 84.9883 27.8841 84.9883 27.8012V18.0416C84.9923 17.9705 85.0121 17.9113 85.0478 17.8679C85.0836 17.8244 85.1352 17.8047 85.2027 17.8047H86.2233C86.2868 17.8047 86.3305 17.8244 86.3583 17.8639C86.3861 17.9034 86.4099 17.9547 86.4337 18.0218L88.8083 24.2914L88.9235 24.8876L89.0387 24.2835L91.4292 18.0218C91.453 17.9547 91.4768 17.9034 91.5046 17.8639C91.5324 17.8244 91.5761 17.8047 91.6396 17.8047H92.6443C92.7118 17.8047 92.7634 17.8244 92.7992 17.8679C92.8349 17.9113 92.8548 17.9666 92.8587 18.0416V27.7973C92.8667 27.975 92.8031 28.0618 92.6641 28.0618H91.8144C91.6714 28.0618 91.5999 27.975 91.5999 27.8012L91.6635 20.9513L91.7429 20.0472L91.4967 20.9513L89.4715 26.2496C89.4477 26.3326 89.4199 26.3878 89.3841 26.4194C89.3484 26.451 89.3047 26.4668 89.2452 26.4668H88.5939C88.5423 26.4668 88.4986 26.451 88.4629 26.4194C88.4311 26.3878 88.3993 26.3326 88.3755 26.2496L86.3702 20.9553Z" fill="#565756"/>
<path d="M52.6471 10.5611L51.2453 10.802C48.3902 11.2955 45.7336 12.0456 43.3193 12.926V5.31807L42.5727 5.64971C40.8771 6.40774 39.2728 7.19736 37.7401 8.03041L37.6884 0.0552732L36.8784 0.568524C32.9312 3.07556 29.3137 5.92213 26.0813 9.05691C22.9681 6.13532 19.4577 3.2927 15.6059 0.588265L14.772 0V8.26334C13.1042 7.33159 11.3927 6.48276 9.64547 5.72078L8.89893 5.39703L8.93467 12.4759C6.37737 11.6034 3.80418 11.0309 1.25482 10.7743L0 10.648L10.0465 23.1318L10.0029 13.992C11.7302 14.6632 13.3266 15.4252 14.772 16.2148V24.1267L14.8752 24.2649C17.8296 28.217 25.6008 34.6484 25.9304 34.9208L26.2679 35.1972L26.6055 34.9208C26.9351 34.6523 34.7102 28.288 37.6686 24.1781L37.8433 23.882L37.7956 16.5148C39.1537 15.8042 40.6468 15.1014 42.263 14.4539V23.1634L52.6471 10.5611ZM43.3193 14.0512C45.3762 13.2814 47.6119 12.6062 50.0024 12.1088L43.3193 20.2221V14.0512ZM2.42626 11.9785C4.73339 12.3101 6.91742 12.8826 8.94261 13.6012L8.97438 20.1155L2.42626 11.9785ZM36.6361 1.98194L36.648 8.63841C34.2853 9.98866 32.1013 11.4494 30.0443 13.0642C29.5956 12.5747 29.1389 12.089 28.6664 11.5995C28.0747 10.9875 27.4632 10.3835 26.8398 9.77941C29.7862 6.92494 33.0424 4.33105 36.6361 1.98194ZM18.8383 17.4466C17.8495 16.7833 16.8448 16.1635 15.8322 15.591V10.0953C17.7979 11.2757 19.696 12.5747 21.5187 13.9881C20.5895 15.1054 19.696 16.2582 18.8383 17.4466ZM22.3406 14.6395C23.3731 15.4686 24.3817 16.3332 25.3626 17.2334C24.4175 18.1809 23.4922 19.1798 22.5868 20.226C21.749 19.5391 20.784 18.8008 19.7079 18.0427C20.5497 16.8741 21.4234 15.7371 22.3406 14.6395ZM29.2263 13.7235C28.1581 14.6 27.1217 15.5239 26.1131 16.4951C25.1124 15.5712 24.0799 14.6869 23.0197 13.8341C24.0045 12.6931 25.025 11.5876 26.0932 10.5177C27.1971 11.5797 28.2415 12.6457 29.2263 13.7235ZM29.0675 20.9525C27.6498 22.0856 26.669 22.9976 26.1647 23.4951C25.6763 22.9858 24.7391 22.0501 23.3969 20.9051C24.2904 19.8747 25.1997 18.8916 26.1329 17.9598C27.1415 18.9192 28.1224 19.9181 29.0675 20.9525ZM22.706 21.7105C24.6478 23.3766 25.7358 24.5847 25.7517 24.6045L26.1369 25.0388L26.534 24.6163C26.5499 24.6005 27.6856 23.4042 29.7703 21.7421C30.4335 22.4962 31.0807 23.2661 31.7082 24.0517L26.3037 29.1369L20.8118 24.0873C21.4353 23.2661 22.0667 22.4725 22.706 21.7105ZM26.8874 17.2176C27.8762 16.2701 28.8888 15.3699 29.9371 14.5092C31.0132 15.7213 32.0099 16.9373 32.9312 18.1572C32.8319 18.2204 32.7366 18.2875 32.6413 18.3507C31.6208 19.0298 30.7075 19.6891 29.9053 20.3011C28.9285 19.2351 27.9238 18.2046 26.8874 17.2176ZM30.7512 13.8538C32.5977 12.4088 34.5474 11.0862 36.6441 9.85837L36.652 15.9345C35.6196 16.4912 34.6705 17.0518 33.8088 17.5887C32.8796 16.3451 31.8551 15.0975 30.7512 13.8538ZM15.8322 2.04116C19.3346 4.55214 22.5154 7.14998 25.3348 9.79915C24.7828 10.3519 24.2427 10.9125 23.7146 11.485C23.1984 12.0417 22.6941 12.6102 22.1977 13.1866C20.1646 11.6074 18.0361 10.1663 15.8322 8.87529V2.04116ZM11.5237 13.4669C11.0155 13.2498 10.5072 13.0484 9.99492 12.855L9.96712 7.0197C11.6032 7.76194 13.2074 8.57919 14.772 9.4754V15.0146C13.6998 14.446 12.6158 13.9288 11.5237 13.4669ZM18.2267 18.3073C17.3928 19.5035 16.5907 20.7353 15.8283 21.9987V16.8109C16.6939 17.3163 17.4961 17.8177 18.2267 18.3073ZM26.2719 33.8351C24.7629 32.5717 18.604 27.3247 15.9355 23.9136C16.9282 22.1764 17.9805 20.5103 19.0964 18.9034C20.1407 19.6378 21.0819 20.3603 21.8999 21.0314C21.1494 21.9277 20.4108 22.8634 19.6761 23.8385L19.3902 24.2176L26.3116 30.5779L33.1417 24.1583L32.8438 23.7793C32.1211 22.8594 31.3746 21.9632 30.6082 21.0867C31.3786 20.4985 32.2561 19.8668 33.2251 19.2232C33.3323 19.1522 33.4435 19.0771 33.5547 19.0061C34.7181 20.613 35.7387 22.2277 36.6123 23.8306C33.9597 27.3563 27.7809 32.5756 26.2719 33.8351ZM36.6679 21.8013C35.9968 20.684 35.2542 19.5628 34.4441 18.4415C35.1272 18.0151 35.8658 17.5769 36.6599 17.1347L36.6679 21.8013ZM37.7877 15.3423L37.748 9.23062C39.1815 8.43311 40.6825 7.67508 42.263 6.94863V13.3287C40.6508 13.9604 39.1537 14.6434 37.7877 15.3423Z" fill="#AE6D24"/>
<path d="M39.4019 34.4018H37.2734V34.1017L38.9095 31.8276H37.2734V31.5078H39.3701V31.8079L37.7341 34.082H39.4019V34.4018Z" fill="#AE6D24"/>
<path d="M41.7582 34.4016H41.4326V34.1647C41.2539 34.3582 41.0236 34.4569 40.7337 34.4569C40.5391 34.4569 40.3684 34.3937 40.2175 34.2713C40.0666 34.1489 39.9951 33.9792 39.9951 33.762C39.9951 33.5409 40.0706 33.3712 40.2135 33.2527C40.3604 33.1343 40.5312 33.0711 40.7297 33.0711C41.0276 33.0711 41.2619 33.1659 41.4286 33.3593V32.9803C41.4286 32.8421 41.381 32.7316 41.2817 32.6566C41.1824 32.5816 41.0554 32.5381 40.8965 32.5381C40.6503 32.5381 40.4359 32.6368 40.2493 32.8303L40.0984 32.6052C40.3207 32.3723 40.6027 32.2578 40.9402 32.2578C41.1824 32.2578 41.377 32.317 41.5279 32.4315C41.6788 32.546 41.7543 32.7237 41.7543 32.9645V34.4016H41.7582ZM40.8489 34.22C41.111 34.22 41.3055 34.1332 41.4286 33.9594V33.5646C41.3055 33.3909 41.111 33.3041 40.8489 33.3041C40.698 33.3041 40.5749 33.3475 40.4756 33.4304C40.3763 33.5173 40.3287 33.6278 40.3287 33.762C40.3287 33.8963 40.3763 34.0029 40.4756 34.0897C40.5749 34.1766 40.698 34.22 40.8489 34.22Z" fill="#AE6D24"/>
<path d="M45.4579 34.4007H45.1322V32.9794C45.1322 32.6912 45.0012 32.5451 44.7431 32.5451C44.6398 32.5451 44.5326 32.5767 44.4294 32.6399C44.3261 32.7031 44.2427 32.7781 44.1832 32.8649V34.4007H43.8576V32.9794C43.8576 32.6912 43.7265 32.5451 43.4684 32.5451C43.3652 32.5451 43.2659 32.5767 43.1626 32.6399C43.0594 32.7031 42.976 32.7781 42.9164 32.8689V34.4007H42.5908V32.3043H42.9164V32.6083C42.9681 32.5254 43.0594 32.4464 43.1904 32.3714C43.3215 32.2964 43.4565 32.253 43.5955 32.253C43.7503 32.253 43.8734 32.2885 43.9687 32.3596C44.064 32.4306 44.1276 32.5254 44.1593 32.6399C44.2229 32.5372 44.3222 32.4464 44.4532 32.3675C44.5842 32.2885 44.7232 32.249 44.8662 32.249C45.2593 32.249 45.4539 32.4583 45.4539 32.8807V34.4007H45.4579Z" fill="#AE6D24"/>
<path d="M47.9669 34.1367C47.7763 34.3459 47.5221 34.4525 47.2084 34.4525C46.8947 34.4525 46.6406 34.3459 46.45 34.1367C46.2594 33.9274 46.1641 33.6629 46.1641 33.351C46.1641 33.0391 46.2594 32.7785 46.45 32.5693C46.6406 32.36 46.8947 32.2534 47.2084 32.2534C47.5221 32.2534 47.7763 32.36 47.9669 32.5693C48.1575 32.7785 48.2528 33.0391 48.2528 33.351C48.2528 33.6629 48.1535 33.9274 47.9669 34.1367ZM46.6962 33.9274C46.8232 34.0853 46.994 34.1643 47.2084 34.1643C47.4229 34.1643 47.5936 34.0853 47.7207 33.9274C47.8438 33.7695 47.9073 33.58 47.9073 33.351C47.9073 33.122 47.8438 32.9364 47.7207 32.7785C47.5976 32.6206 47.4268 32.5456 47.2084 32.5456C46.994 32.5456 46.8232 32.6245 46.6962 32.7825C46.5691 32.9404 46.5056 33.1299 46.5056 33.351C46.5056 33.576 46.5691 33.7695 46.6962 33.9274Z" fill="#AE6D24"/>
<path d="M50.7092 34.4012H50.3836V33.0312C50.3836 32.8535 50.3439 32.7311 50.2605 32.6561C50.1771 32.5811 50.0619 32.5456 49.911 32.5456C49.7879 32.5456 49.6688 32.5772 49.5536 32.6403C49.4385 32.7035 49.3511 32.7785 49.2836 32.8693V34.4012H48.958V32.3047H49.2836V32.6087C49.367 32.514 49.4742 32.4311 49.6092 32.36C49.7443 32.289 49.8872 32.2534 50.0341 32.2534C50.4829 32.2534 50.7052 32.4785 50.7052 32.9285V34.4012H50.7092Z" fill="#AE6D24"/>
<path d="M53.1811 34.4016H52.8555V34.1647C52.6768 34.3582 52.4464 34.4569 52.1566 34.4569C51.962 34.4569 51.7912 34.3937 51.6403 34.2713C51.4894 34.1489 51.418 33.9792 51.418 33.762C51.418 33.5409 51.4934 33.3712 51.6364 33.2527C51.7833 33.1343 51.954 33.0711 52.1526 33.0711C52.4504 33.0711 52.6847 33.1659 52.8515 33.3593V32.9803C52.8515 32.8421 52.8038 32.7316 52.7046 32.6566C52.6053 32.5816 52.4782 32.5381 52.3194 32.5381C52.0732 32.5381 51.8587 32.6368 51.6721 32.8303L51.5212 32.6052C51.7436 32.3723 52.0255 32.2578 52.3631 32.2578C52.6053 32.2578 52.7999 32.317 52.9508 32.4315C53.1017 32.546 53.1771 32.7237 53.1771 32.9645V34.4016H53.1811ZM52.2717 34.22C52.5338 34.22 52.7284 34.1332 52.8515 33.9594V33.5646C52.7284 33.3909 52.5338 33.3041 52.2717 33.3041C52.1208 33.3041 51.9977 33.3475 51.8985 33.4304C51.7992 33.5173 51.7515 33.6278 51.7515 33.762C51.7515 33.8963 51.7992 34.0029 51.8985 34.0897C51.9977 34.1766 52.1208 34.22 52.2717 34.22Z" fill="#AE6D24"/>
<path d="M54.9303 34.4011H54.5729L53.6953 32.3047H54.0487L54.7516 34.0221L55.4505 32.3047H55.8079L54.9303 34.4011Z" fill="#AE6D24"/>
<path d="M56.484 32.0125C56.4244 32.0125 56.3767 31.9928 56.3331 31.9493C56.2894 31.9059 56.2695 31.8546 56.2695 31.7954C56.2695 31.7361 56.2894 31.6809 56.3331 31.6374C56.3767 31.594 56.4284 31.5703 56.484 31.5703C56.5435 31.5703 56.5991 31.594 56.6428 31.6374C56.6865 31.6809 56.7063 31.7322 56.7063 31.7954C56.7063 31.8585 56.6865 31.9059 56.6428 31.9493C56.5991 31.9888 56.5475 32.0125 56.484 32.0125ZM56.6507 34.405H56.3251V32.3086H56.6507V34.405Z" fill="#AE6D24"/>
<path d="M57.3548 35.2262L57.4064 34.9301C57.458 34.9538 57.5176 34.9656 57.5851 34.9656C57.6606 34.9656 57.7241 34.9498 57.7718 34.9182C57.8194 34.8867 57.8631 34.8274 57.8988 34.7445L58.0378 34.4287L57.1562 32.3125H57.5097L58.2125 34.0299L58.9114 32.3125H59.2688L58.2125 34.8314C58.0974 35.1077 57.8909 35.2499 57.5931 35.2578C57.5097 35.2538 57.4302 35.2459 57.3548 35.2262Z" fill="#AE6D24"/>
<path d="M62.9442 34.4017H62.5273L61.7688 33.4621L61.4194 33.8056V34.4057H61.0938V31.5117H61.4194V33.4226L62.5273 32.3092H62.9402L62.0071 33.2607L62.9442 34.4017Z" fill="#AE6D24"/>
<path d="M65.1469 34.4016H64.8213V34.1647C64.6426 34.3582 64.4123 34.4569 64.1224 34.4569C63.9278 34.4569 63.7571 34.3937 63.6062 34.2713C63.4553 34.1489 63.3838 33.9792 63.3838 33.762C63.3838 33.5409 63.4592 33.3712 63.6022 33.2527C63.7491 33.1343 63.9199 33.0711 64.1184 33.0711C64.4162 33.0711 64.6505 33.1659 64.8173 33.3593V32.9803C64.8173 32.8421 64.7696 32.7316 64.6704 32.6566C64.5711 32.5816 64.444 32.5381 64.2852 32.5381C64.039 32.5381 63.8246 32.6368 63.6379 32.8303L63.487 32.6052C63.7094 32.3723 63.9913 32.2578 64.3289 32.2578C64.5711 32.2578 64.7657 32.317 64.9166 32.4315C65.0675 32.546 65.1429 32.7237 65.1429 32.9645V34.4016H65.1469ZM64.2415 34.22C64.5036 34.22 64.6982 34.1332 64.8213 33.9594V33.5646C64.6982 33.3909 64.5036 33.3041 64.2415 33.3041C64.0906 33.3041 63.9675 33.3475 63.8682 33.4304C63.769 33.5173 63.7213 33.6278 63.7213 33.762C63.7213 33.8963 63.769 34.0029 63.8682 34.0897C63.9635 34.1766 64.0906 34.22 64.2415 34.22Z" fill="#AE6D24"/>
<path d="M66.6437 34.4534C66.2863 34.4534 66.0004 34.3428 65.7939 34.1257L65.9647 33.8928C66.0362 33.9757 66.1355 34.0467 66.2625 34.106C66.3896 34.1652 66.5206 34.1928 66.6556 34.1928C66.8145 34.1928 66.9336 34.1612 67.021 34.0941C67.1083 34.027 67.152 33.9401 67.152 33.8335C67.152 33.7427 67.1083 33.6677 67.017 33.6164C66.9257 33.5611 66.8185 33.5216 66.6914 33.494C66.5643 33.4664 66.4372 33.4348 66.3102 33.3993C66.1831 33.3637 66.0719 33.3006 65.9846 33.2137C65.8932 33.1268 65.8495 33.0084 65.8495 32.8663C65.8495 32.6965 65.921 32.5544 66.06 32.4359C66.199 32.3214 66.3936 32.2622 66.6318 32.2622C66.9495 32.2622 67.2076 32.3649 67.4141 32.5662L67.2632 32.7912C67.1163 32.6136 66.9058 32.5267 66.6358 32.5267C66.4928 32.5267 66.3817 32.5583 66.2943 32.6215C66.2109 32.6847 66.1672 32.7636 66.1672 32.8584C66.1672 32.9413 66.2109 33.0084 66.3022 33.0558C66.3936 33.1031 66.5008 33.1426 66.6279 33.1703C66.7549 33.1979 66.882 33.2295 67.0091 33.269C67.1361 33.3084 67.2473 33.3716 67.3347 33.4664C67.426 33.5611 67.4697 33.6835 67.4697 33.8335C67.4697 34.0191 67.3982 34.1691 67.2513 34.2876C67.1044 34.406 66.9058 34.4534 66.6437 34.4534Z" fill="#AE6D24"/>
<path d="M68.5092 34.4018H68.1836V31.5078H68.5092V32.6212C68.6919 32.3764 68.9301 32.254 69.22 32.254C69.498 32.254 69.7204 32.3527 69.8951 32.5541C70.0698 32.7554 70.1572 33.0199 70.1572 33.3555C70.1572 33.6911 70.0698 33.9596 69.899 34.157C69.7243 34.3544 69.498 34.4531 69.22 34.4531C68.9262 34.4531 68.6879 34.3307 68.5092 34.0899V34.4018ZM68.5092 33.8332C68.5688 33.924 68.6561 34.003 68.7713 34.0662C68.8904 34.1293 69.0096 34.1609 69.1366 34.1609C69.3471 34.1609 69.5099 34.0859 69.633 33.9359C69.7561 33.7859 69.8157 33.5924 69.8157 33.3555C69.8157 33.1186 69.7561 32.9252 69.633 32.7712C69.5099 32.6212 69.3471 32.5422 69.1366 32.5422C69.0096 32.5422 68.8904 32.5738 68.7713 32.6409C68.6522 32.7041 68.5648 32.787 68.5092 32.8817V33.8332Z" fill="#AE6D24"/>
<path d="M71.1967 34.4018H70.8711V31.5078H71.1967V34.4018Z" fill="#AE6D24"/>
<path d="M73.6684 34.4016H73.3428V34.1647C73.1641 34.3582 72.9337 34.4569 72.6439 34.4569C72.4493 34.4569 72.2785 34.3937 72.1276 34.2713C71.9767 34.1489 71.9053 33.9792 71.9053 33.762C71.9053 33.5409 71.9807 33.3712 72.1237 33.2527C72.2706 33.1343 72.4413 33.0711 72.6399 33.0711C72.9377 33.0711 73.172 33.1659 73.3388 33.3593V32.9803C73.3388 32.8421 73.2911 32.7316 73.1919 32.6566C73.0926 32.5816 72.9655 32.5381 72.8067 32.5381C72.5605 32.5381 72.346 32.6368 72.1594 32.8303L72.0085 32.6052C72.2309 32.3723 72.5128 32.2578 72.8504 32.2578C73.0926 32.2578 73.2872 32.317 73.4381 32.4315C73.589 32.546 73.6644 32.7237 73.6644 32.9645V34.4016H73.6684ZM72.759 34.22C73.0211 34.22 73.2157 34.1332 73.3388 33.9594V33.5646C73.2157 33.3909 73.0211 33.3041 72.759 33.3041C72.6081 33.3041 72.485 33.3475 72.3858 33.4304C72.2865 33.5173 72.2388 33.6278 72.2388 33.762C72.2388 33.8963 72.2865 34.0029 72.3858 34.0897C72.485 34.1766 72.6081 34.22 72.759 34.22Z" fill="#AE6D24"/>
<path d="M74.8217 34.4021H74.4961V32.3056H74.8217V32.6452C75.0163 32.3925 75.2506 32.2622 75.5246 32.2622V32.5978C75.4849 32.5899 75.4412 32.586 75.3935 32.586C75.2943 32.586 75.187 32.6215 75.0719 32.6886C74.9567 32.7557 74.8733 32.8347 74.8217 32.9176V34.4021Z" fill="#AE6D24"/>
<path d="M80.2772 34.4017H79.9516V32.9804C79.9516 32.6922 79.8205 32.5461 79.5624 32.5461C79.4592 32.5461 79.352 32.5777 79.2487 32.6409C79.1455 32.704 79.0621 32.779 79.0025 32.8659V34.4017H78.6769V32.9804C78.6769 32.6922 78.5459 32.5461 78.2877 32.5461C78.1845 32.5461 78.0852 32.5777 77.982 32.6409C77.8787 32.704 77.7953 32.779 77.7358 32.8699V34.4017H77.4102V32.3053H77.7358V32.6093C77.7874 32.5264 77.8787 32.4474 78.0098 32.3724C78.1408 32.2974 78.2758 32.2539 78.4148 32.2539C78.5697 32.2539 78.6928 32.2895 78.7881 32.3605C78.8834 32.4316 78.9469 32.5264 78.9787 32.6409C79.0422 32.5382 79.1415 32.4474 79.2725 32.3684C79.4036 32.2895 79.5426 32.25 79.6855 32.25C80.0787 32.25 80.2732 32.4592 80.2732 32.8817V34.4017H80.2772Z" fill="#AE6D24"/>
<path d="M82.7553 34.4016H82.4297V34.1647C82.251 34.3582 82.0207 34.4569 81.7308 34.4569C81.5362 34.4569 81.3655 34.3937 81.2146 34.2713C81.0676 34.1489 80.9922 33.9792 80.9922 33.762C80.9922 33.5409 81.0637 33.3712 81.2106 33.2527C81.3575 33.1343 81.5283 33.0711 81.7268 33.0711C82.0246 33.0711 82.2589 33.1659 82.4257 33.3593V32.9803C82.4257 32.8421 82.3741 32.7316 82.2788 32.6566C82.1795 32.5776 82.0524 32.5381 81.8936 32.5381C81.6474 32.5381 81.429 32.6368 81.2463 32.8303L81.0954 32.6052C81.3178 32.3723 81.5997 32.2578 81.9373 32.2578C82.1795 32.2578 82.3741 32.317 82.525 32.4315C82.6759 32.546 82.7513 32.7237 82.7513 32.9645V34.4016H82.7553ZM81.8459 34.22C82.108 34.22 82.3026 34.1332 82.4257 33.9594V33.5646C82.2986 33.3909 82.108 33.3041 81.8459 33.3041C81.695 33.3041 81.5719 33.3475 81.4727 33.4304C81.3734 33.5173 81.3257 33.6278 81.3257 33.762C81.3257 33.8963 81.3734 34.0029 81.4727 34.0897C81.5719 34.1766 81.695 34.22 81.8459 34.22Z" fill="#AE6D24"/>
<path d="M85.4325 34.4017H85.0156L84.2571 33.4621L83.9076 33.8056V34.4057H83.582V31.5117H83.9076V33.4226L85.0156 32.3092H85.4285L84.4953 33.2607L85.4325 34.4017Z" fill="#AE6D24"/>
<path d="M86.529 34.4546C86.3741 34.4546 86.2589 34.4112 86.1795 34.3283C86.1001 34.2454 86.0604 34.123 86.0604 33.965V32.5951H85.7109V32.3068H86.0604V31.7344H86.386V32.3068H86.8149V32.5951H86.386V33.8979C86.386 33.9808 86.4059 34.044 86.4416 34.0914C86.4773 34.1388 86.529 34.1664 86.6004 34.1664C86.6957 34.1664 86.7712 34.1388 86.8228 34.0795L86.9181 34.3243C86.8268 34.4112 86.6957 34.4546 86.529 34.4546Z" fill="#AE6D24"/>
<path d="M89.099 34.4016H88.7734V34.1647C88.5947 34.3582 88.3644 34.4569 88.0745 34.4569C87.88 34.4569 87.7092 34.3937 87.5583 34.2713C87.4114 34.1489 87.3359 33.9792 87.3359 33.762C87.3359 33.5409 87.4074 33.3712 87.5543 33.2527C87.7013 33.1343 87.872 33.0711 88.0706 33.0711C88.3684 33.0711 88.6027 33.1659 88.7695 33.3593V32.9803C88.7695 32.8421 88.7178 32.7316 88.6225 32.6566C88.5233 32.5776 88.3962 32.5381 88.2373 32.5381C87.9911 32.5381 87.7727 32.6368 87.5901 32.8303L87.4392 32.6052C87.6616 32.3723 87.9435 32.2578 88.281 32.2578C88.5233 32.2578 88.7178 32.317 88.8687 32.4315C89.0196 32.546 89.0951 32.7237 89.0951 32.9645V34.4016H89.099ZM88.1937 34.22C88.4558 34.22 88.6503 34.1332 88.7734 33.9594V33.5646C88.6464 33.3909 88.4558 33.3041 88.1937 33.3041C88.0428 33.3041 87.9197 33.3475 87.8204 33.4304C87.7211 33.5173 87.6735 33.6278 87.6735 33.762C87.6735 33.8963 87.7211 34.0029 87.8204 34.0897C87.9157 34.1766 88.0428 34.22 88.1937 34.22Z" fill="#AE6D24"/>
<path d="M90.2524 34.4027H89.9268V31.5088H90.2524V32.6221C90.435 32.3774 90.6733 32.255 90.9632 32.255C91.2412 32.255 91.4635 32.3537 91.6382 32.555C91.813 32.7564 91.9003 33.0209 91.9003 33.3565C91.9003 33.6921 91.813 33.9605 91.6422 34.158C91.4715 34.3554 91.2451 34.4541 90.9632 34.4541C90.6693 34.4541 90.4311 34.3317 90.2524 34.0908V34.4027ZM90.2524 33.8342C90.3119 33.925 90.3993 34.004 90.5184 34.0671C90.6376 34.1303 90.7567 34.1619 90.8838 34.1619C91.0942 34.1619 91.261 34.0869 91.3801 33.9369C91.4993 33.7868 91.5628 33.5934 91.5628 33.3565C91.5628 33.1196 91.5032 32.9262 91.3801 32.7722C91.257 32.6222 91.0903 32.5432 90.8838 32.5432C90.7607 32.5432 90.6376 32.5748 90.5184 32.6419C90.3993 32.7051 90.3119 32.788 90.2524 32.8827V33.8342Z" fill="#AE6D24"/>
<path d="M92.7731 32.0125C92.7135 32.0125 92.6659 31.9928 92.6222 31.9493C92.5785 31.9059 92.5547 31.8546 92.5547 31.7954C92.5547 31.7361 92.5785 31.6809 92.6222 31.6374C92.6659 31.594 92.7175 31.5703 92.7731 31.5703C92.8327 31.5703 92.8882 31.594 92.9319 31.6374C92.9756 31.6809 92.9994 31.7322 92.9994 31.7954C92.9994 31.8585 92.9756 31.9059 92.9319 31.9493C92.8882 31.9888 92.8366 32.0125 92.7731 32.0125ZM92.9399 34.405H92.6142V32.3086H92.9399V34.405Z" fill="#AE6D24"/>
</svg>
