<svg width="112" height="31" viewBox="0 0 112 31" fill="none" xmlns="http://www.w3.org/2000/svg">
<g opacity="0.92">
<mask id="mask0" mask-type="alpha" maskUnits="userSpaceOnUse" x="0" y="0" width="112" height="31">
<path fill-rule="evenodd" clip-rule="evenodd" d="M0 30.3846H111.624V0H0V30.3846Z" fill="white"/>
</mask>
<g mask="url(#mask0)">
<path fill-rule="evenodd" clip-rule="evenodd" d="M53.6888 7.28809H50.6719V14.2158H52.4217V12.1496H53.5681C55.0765 12.1496 56.1626 11.1773 56.1626 9.71886C56.1626 8.26039 55.1972 7.28809 53.6888 7.28809ZM53.206 10.8735H52.4217V8.62501H53.206C53.9301 8.62501 54.4128 8.98962 54.4128 9.71886C54.4128 10.4481 53.9904 10.8735 53.206 10.8735Z" fill="#002930"/>
<path fill-rule="evenodd" clip-rule="evenodd" d="M59.5411 7.28809H56.7656V14.2158H59.5411C61.6529 14.2158 62.8597 12.9396 62.8597 10.6912C62.8597 8.50347 61.5926 7.28809 59.5411 7.28809ZM59.2998 12.8181H58.4551V8.68578H59.2998C60.3859 8.68578 61.0496 9.41501 61.0496 10.6912C61.0496 12.0889 60.4462 12.8181 59.2998 12.8181Z" fill="#002930"/>
<path fill-rule="evenodd" clip-rule="evenodd" d="M66.4231 7.28809H63.4062V14.2158H65.156V12.1496H66.3025C67.8109 12.1496 68.897 11.1773 68.897 9.71886C68.897 8.26039 67.9316 7.28809 66.4231 7.28809ZM65.9404 10.8735H65.156V8.62501H65.9404C66.6645 8.62501 67.1472 8.98962 67.1472 9.71886C67.1472 10.4481 66.7248 10.8735 65.9404 10.8735Z" fill="#002930"/>
<path d="M52.4217 17.8018H50.6719V24.7295H52.4217V17.8018Z" fill="#002930"/>
<path fill-rule="evenodd" clip-rule="evenodd" d="M52.9648 17.7969V19.2553H54.8353V24.7853H56.5851V19.2553H58.5159V17.7969H52.9648Z" fill="#002930"/>
<path fill-rule="evenodd" clip-rule="evenodd" d="M58.5195 22.7253H63.4068V21.2061H58.5195V22.7253Z" fill="#002930"/>
<path fill-rule="evenodd" clip-rule="evenodd" d="M65.578 17.7998L63.2852 24.7275H65.0953L65.5176 23.2083H67.7501L68.1725 24.7275H70.0429L67.7501 17.7998H65.578ZM65.8797 21.9929L66.6641 19.319H66.7244L67.5088 21.9929H65.8797Z" fill="#002930"/>
<path fill-rule="evenodd" clip-rule="evenodd" d="M74.6864 22.1131C74.5657 22.9031 74.0227 23.4501 73.2383 23.4501C72.2729 23.4501 71.6695 22.5993 71.6695 21.2624C71.6695 19.9254 72.2729 19.0747 73.2383 19.0747C74.0227 19.0747 74.5657 19.6216 74.6864 20.4116H76.3758C76.3155 18.7708 74.9881 17.6162 73.2383 17.6162C71.1868 17.6162 69.8594 18.9531 69.8594 21.2016C69.8594 23.4501 71.1265 24.787 73.2383 24.787C75.0484 24.787 76.3155 23.6931 76.3758 22.0524H74.6864V22.1131Z" fill="#002930"/>
<path fill-rule="evenodd" clip-rule="evenodd" d="M78.5506 17.7959L76.2578 24.7236H78.0679L78.4903 23.2044H80.7228L81.1451 24.7236H83.0156L80.6624 17.7959H78.5506ZM78.792 21.989L79.5764 19.3151H79.6367L80.4211 21.989H78.792Z" fill="#002930"/>
<path fill-rule="evenodd" clip-rule="evenodd" d="M86.213 17.7959H83.4375V24.7236H86.213C88.3248 24.7236 89.5316 23.4474 89.5316 21.199C89.5316 19.0113 88.3248 17.7959 86.213 17.7959ZM85.9717 23.3259H85.1269V19.1936H85.9717C87.0577 19.1936 87.7214 19.9228 87.7214 21.199C87.7818 22.6574 87.1181 23.3259 85.9717 23.3259Z" fill="#002930"/>
<path fill-rule="evenodd" clip-rule="evenodd" d="M90.1338 24.7849H94.9004V23.3264H91.8836V21.9287H94.7194V20.5918H91.8836V19.2549H94.9004V17.7964H90.1338V24.7849Z" fill="#002930"/>
<path fill-rule="evenodd" clip-rule="evenodd" d="M99.4253 22.3541L97.6755 17.7964H95.624V24.7849H97.1928V20.4095L98.9426 24.7849H99.908L101.658 20.4095V24.7849H103.227V17.7964H101.175L99.4253 22.3541Z" fill="#002930"/>
<path fill-rule="evenodd" clip-rule="evenodd" d="M108.298 17.7959L106.911 20.7128L105.523 17.7959H103.652L106.005 22.3536V24.7844H107.755V22.3536L110.169 17.7959H108.298Z" fill="#002930"/>
<path fill-rule="evenodd" clip-rule="evenodd" d="M10.1914 4.98438C4.57999 4.98438 0.0546875 9.54207 0.0546875 15.1936C0.0546875 20.8451 4.57999 25.4028 10.1914 25.4028C15.8027 25.4028 20.3281 20.8451 20.3281 15.1936C20.3281 9.54207 15.7424 4.98438 10.1914 4.98438Z" fill="#00B533"/>
<path fill-rule="evenodd" clip-rule="evenodd" d="M28.2926 0L20.8711 30.4454H27.1462L34.5073 0H28.2926Z" fill="#002930"/>
<path fill-rule="evenodd" clip-rule="evenodd" d="M37.3455 0L29.9844 30.4454H36.2595L43.6206 0H37.3455Z" fill="#002930"/>
</g>
</g>
</svg>
