<svg width="116" height="40" viewBox="0 0 116 40" fill="none" xmlns="http://www.w3.org/2000/svg">
<path d="M31.8754 21.0472C31.8754 21.0472 34.9287 16.3002 42.6223 27.5634C46.7644 33.6268 48.7687 38.2887 55.934 39.8876C55.934 39.8876 46.2006 40.4816 39.3318 29.7639C32.463 19.0462 25.6988 29.7639 16.9541 19.2607C16.9541 19.2607 21.0693 20.6354 23.1415 20.5168" fill="url(#paint0_linear)"/>
<path d="M39.9399 4.72266C39.9399 4.72266 47.4307 12.4841 37.1055 16.263C37.1055 16.263 38.8607 16.5325 40.6827 16.263C40.6827 16.263 39.873 17.2074 38.658 17.478C38.658 17.478 42.0325 17.6807 43.6519 12.8884C45.2712 8.09613 39.9399 4.72266 39.9399 4.72266Z" fill="url(#paint1_linear)"/>
<path d="M32.4131 22.6645C32.4131 22.6645 38.6555 21.5971 44.6628 33.6776L44.3254 32.3957C44.3254 32.3957 48.2401 39.1448 55.9336 39.8866C55.9336 39.8866 50.2325 40.2769 42.6219 27.5625C37.517 21.6694 32.4131 22.6645 32.4131 22.6645Z" fill="url(#paint2_linear)"/>
<path d="M37.4402 21.5948C34.4031 19.1647 29.9968 19.1118 28.9672 20.9878C28.9672 20.9878 27.4513 18.8984 30.759 17.4795C30.7644 17.4774 30.7687 17.4752 30.7741 17.4731C30.7806 17.4504 30.7892 17.4289 30.8022 17.4084C30.8065 17.3836 30.813 17.3588 30.8237 17.3351C30.8572 17.2553 30.924 17.1971 30.9596 17.1205C30.9855 17.0634 31.0005 17.0019 31.0286 16.9459C31.0512 16.9027 31.0814 16.8639 31.1062 16.8208C31.1429 16.7561 31.1946 16.7216 31.2496 16.7108C31.986 15.5572 33.0781 14.6548 34.2781 14.0101C34.5638 13.8096 34.9465 13.6975 35.146 13.401C35.1708 13.3632 35.202 13.3374 35.2354 13.3201C36.5853 11.5175 37.5082 9.85284 37.5082 9.85284L35.753 6.47829L33.4587 4.92578C33.4587 4.92578 29.0718 18.0186 9.97266 11.9444C9.97266 11.9444 14.3596 18.0186 26.2374 19.0978C26.2374 19.0978 21.7157 20.3797 16.7218 18.8283C16.7218 18.8283 19.4656 25.2496 30.0841 22.9446C38.7901 21.0546 43.6611 29.1665 43.6611 29.1665C43.6611 29.1665 40.4773 24.0238 37.4402 21.5948Z" fill="url(#paint3_linear)"/>
<path d="M1.67188 2.15625C1.67188 2.15625 10.0403 11.6061 20.4335 11.0994C20.4335 11.0994 17.3285 12.5494 9.97242 11.9425C9.97242 11.9425 22.4583 17.207 30.0839 9.98564V7.21808C30.0839 7.21808 26.9789 5.32812 26.6414 5.05858C26.304 4.78905 18.205 2.96593 17.8676 2.96593C17.5312 2.96593 3.08854 3.37023 1.67188 2.15625Z" fill="url(#paint4_linear)"/>
<path d="M0.996094 0C0.996094 0 5.34097 6.88387 22.6385 5.06183L20.7701 6.34373C20.7701 6.34373 29.476 5.80359 29.7466 9.65036C30.0162 13.4971 22.6396 15.5219 22.6396 15.5219C22.6396 15.5219 32.9185 17.5466 35.6861 10.528L38.2509 7.89624L27.5871 1.61936C27.5871 1.61936 16.9233 0.741756 13.6167 1.07921C10.309 1.41774 2.0753 1.14821 0.996094 0Z" fill="url(#paint5_linear)"/>
<path d="M16.25 0.944209C16.25 0.944209 24.1462 1.28166 29.4108 3.3064L27.386 4.38668C27.386 4.38668 36.4294 4.25192 35.9572 10.1234C35.9572 10.1234 34.7421 8.03077 33.3923 7.62647C33.3923 7.62647 35.2143 10.5956 33.2575 13.1605C31.3007 15.7254 30.9773 16.8682 30.7746 17.4741C30.7746 17.4741 33.4042 13.4257 37.5086 13.3621L36.6989 14.2721C36.6989 14.2721 38.4541 13.9023 39.8039 12.4845C39.8039 12.4845 39.8719 13.0915 39.197 13.9023C39.197 13.9023 46.6878 9.11106 35.6876 2.22718L36.2278 3.91446C36.2267 3.91338 31.098 -0.00131321 16.25 0.944209Z" fill="url(#paint6_linear)"/>
<path d="M34.9283 16.6367C34.9283 16.6367 33.3089 16.654 32.4141 17.3289C32.4141 17.3289 33.0556 17.1769 33.4264 17.3289L34.9283 16.6367Z" fill="#37A3DC"/>
<path d="M73.9994 26.8608H72.1197L71.7149 27.7621H71.3438L72.886 24.3883H73.2379L74.7802 27.7621H74.4042L73.9994 26.8608ZM73.8693 26.5716L73.0596 24.7594L72.2498 26.5716H73.8693Z" fill="#142035"/>
<path d="M78.1578 24.3883V27.7621H77.8638L75.6949 25.0245V27.7621H75.3383V24.3883H75.6323L77.8059 27.1259V24.3883H78.1578Z" fill="#142035"/>
<path d="M79.259 24.3883H79.6156V27.7621H79.259V24.3883Z" fill="#142035"/>
<path d="M84.2172 24.3883V27.7621H83.875V25.063L82.5496 27.3331H82.3809L81.0555 25.0775V27.7621H80.7133V24.3883H81.0073L82.4725 26.8897L83.9232 24.3883H84.2172Z" fill="#142035"/>
<path d="M87.4323 26.8608H85.5527L85.1478 27.7621H84.7767L86.319 24.3883H86.6708L88.2131 27.7621H87.8372L87.4323 26.8608ZM87.3022 26.5716L86.4925 24.7594L85.6828 26.5716H87.3022Z" fill="#142035"/>
<path d="M89.2573 24.6968H88.0716V24.3883H90.7996V24.6968H89.6139V27.7621H89.2573V24.6968Z" fill="#142035"/>
<path d="M91.3693 24.3883H91.726V27.7621H91.3693V24.3883Z" fill="#142035"/>
<path d="M94.2985 27.791C93.9644 27.791 93.6607 27.7171 93.3876 27.5693C93.1177 27.4183 92.9056 27.2126 92.7514 26.9524C92.6004 26.6921 92.5249 26.3997 92.5249 26.0752C92.5249 25.7507 92.6004 25.4583 92.7514 25.198C92.9056 24.9377 93.1177 24.7337 93.3876 24.5859C93.6607 24.4349 93.9644 24.3594 94.2985 24.3594C94.6327 24.3594 94.9331 24.4333 95.1998 24.5811C95.4697 24.7289 95.6818 24.9345 95.836 25.198C95.9902 25.4583 96.0673 25.7507 96.0673 26.0752C96.0673 26.3997 95.9902 26.6937 95.836 26.9572C95.6818 27.2174 95.4697 27.4215 95.1998 27.5693C94.9331 27.7171 94.6327 27.791 94.2985 27.791ZM94.2985 27.4729C94.5652 27.4729 94.8062 27.4134 95.0215 27.2946C95.2368 27.1725 95.4054 27.0054 95.5275 26.7933C95.6496 26.578 95.7107 26.3387 95.7107 26.0752C95.7107 25.8117 95.6496 25.5739 95.5275 25.3619C95.4054 25.1466 95.2368 24.9795 95.0215 24.8606C94.8062 24.7385 94.5652 24.6775 94.2985 24.6775C94.0318 24.6775 93.7892 24.7385 93.5708 24.8606C93.3555 24.9795 93.1852 25.1466 93.0599 25.3619C92.9378 25.5739 92.8767 25.8117 92.8767 26.0752C92.8767 26.3387 92.9378 26.578 93.0599 26.7933C93.1852 27.0054 93.3555 27.1725 93.5708 27.2946C93.7892 27.4134 94.0318 27.4729 94.2985 27.4729Z" fill="#142035"/>
<path d="M99.6863 24.3883V27.7621H99.3923L97.2234 25.0245V27.7621H96.8668V24.3883H97.1608L99.3344 27.1259V24.3883H99.6863Z" fill="#142035"/>
<path d="M114.997 26.3711H105.516V26.4293H114.997V26.3711Z" fill="#142035"/>
<path d="M65.4108 26.3711H55.9297V26.4293H65.4108V26.3711Z" fill="#142035"/>
<path d="M61.7159 17.2615C62.284 16.9672 62.7422 16.5543 63.0894 16.0206C63.4366 15.4869 63.6112 14.9069 63.6112 14.2794C63.6112 13.3005 63.2684 12.4671 62.5827 11.7824C61.897 11.0968 61.0647 10.7539 60.0857 10.7539H55.9727V12.9576H60.0857C60.4092 12.9576 60.6852 13.0848 60.9159 13.3393C61.1455 13.5937 61.2609 13.9074 61.2609 14.2794C61.2609 14.6514 61.1455 14.9651 60.9159 15.2195C60.6863 15.474 60.4092 15.6012 60.0857 15.6012H55.9727V21.0371H58.323V17.6583H59.4367L61.3784 21.0371H63.9056L61.7159 17.2615Z" fill="#142035"/>
<path d="M65.0078 10.7539V13.0158H71.3979V10.7539H65.0078ZM67.3581 18.7752H65.0078V21.0371H71.4723V18.7752H67.3581ZM69.9284 16.9542L69.909 14.7214H65.0078V16.9542H69.9284Z" fill="#142035"/>
<path d="M83.954 10.7539L82.1665 17.9558L80.1827 10.7539H78.2841L76.3004 17.9526L74.5225 10.7539H72.0547L74.8902 21.0371H77.5532L79.2329 14.9392L80.9126 21.0371H83.5864L86.4219 10.7539H83.954Z" fill="#142035"/>
<path d="M92.4692 10.7539H89.472L85.9756 21.0371H88.5469L89.0612 19.421L89.7738 17.2173L90.9781 13.4417L92.2654 17.2173L93.0169 19.421L93.5678 21.0371H95.9731L92.4692 10.7539Z" fill="#142035"/>
<path d="M102.599 17.2615C103.166 16.9672 103.624 16.5543 103.972 16.0206C104.319 15.4869 104.494 14.9069 104.494 14.2794C104.494 13.3005 104.151 12.4671 103.466 11.7824C102.78 11.0968 101.947 10.7539 100.969 10.7539H96.8555V12.9576H100.969C101.292 12.9576 101.568 13.0848 101.799 13.3393C102.028 13.5937 102.144 13.9074 102.144 14.2794C102.144 14.6514 102.028 14.9651 101.799 15.2195C101.568 15.474 101.292 15.6012 100.969 15.6012H96.8555V21.0371H99.2058V17.6583H100.318L102.261 21.0371H104.788L102.599 17.2615Z" fill="#142035"/>
<path d="M113.57 12.2299C112.615 11.2455 111.428 10.7539 110.008 10.7539H105.895V13.0158H110.008C110.821 13.0158 111.479 13.2778 111.984 13.8018C112.488 14.3258 112.741 15.0233 112.741 15.8955C112.741 16.7666 112.488 17.4653 111.984 17.9892C111.479 18.5132 110.821 18.7752 110.008 18.7752H105.895V21.0371H110.008C111.428 21.0371 112.616 20.5455 113.57 19.5612C114.525 18.5768 115.003 17.3553 115.003 15.8955C115.002 14.4357 114.524 13.2142 113.57 12.2299Z" fill="#142035"/>
<defs>
<linearGradient id="paint0_linear" x1="52.1983" y1="25.8601" x2="18.4965" y2="33.8053" gradientUnits="userSpaceOnUse">
<stop offset="0.0577" stop-color="#15519B"/>
<stop offset="0.1979" stop-color="#14559D"/>
<stop offset="0.4001" stop-color="#1060A3"/>
<stop offset="0.6398" stop-color="#0E72AD"/>
<stop offset="0.9063" stop-color="#1A8CB9"/>
<stop offset="1" stop-color="#2296BD"/>
</linearGradient>
<linearGradient id="paint1_linear" x1="40.3784" y1="13.9725" x2="42.1977" y2="7.36562" gradientUnits="userSpaceOnUse">
<stop stop-color="#2E5FA8"/>
<stop offset="0.0122" stop-color="#2D62A9"/>
<stop offset="0.0954" stop-color="#2772B0"/>
<stop offset="0.1895" stop-color="#227EB4"/>
<stop offset="0.2971" stop-color="#1F88B6"/>
<stop offset="0.4264" stop-color="#1E8EB7"/>
<stop offset="0.5996" stop-color="#1E92B8"/>
<stop offset="1" stop-color="#1E93B8"/>
</linearGradient>
<linearGradient id="paint2_linear" x1="53.1595" y1="29.1572" x2="33.9367" y2="33.689" gradientUnits="userSpaceOnUse">
<stop stop-color="#19579D"/>
<stop offset="0.1803" stop-color="#106AA9"/>
<stop offset="0.4162" stop-color="#0A7FB7"/>
<stop offset="0.6384" stop-color="#0C8EC0"/>
<stop offset="0.8393" stop-color="#1297C5"/>
<stop offset="1" stop-color="#159AC7"/>
</linearGradient>
<linearGradient id="paint3_linear" x1="40.3326" y1="16.6277" x2="11.0651" y2="23.5276" gradientUnits="userSpaceOnUse">
<stop offset="0.0577" stop-color="#15519B"/>
<stop offset="0.1979" stop-color="#14559D"/>
<stop offset="0.4001" stop-color="#1060A3"/>
<stop offset="0.6398" stop-color="#0E72AD"/>
<stop offset="0.9063" stop-color="#1A8CB9"/>
<stop offset="1" stop-color="#2296BD"/>
</linearGradient>
<linearGradient id="paint4_linear" x1="30.0917" y1="7.51399" x2="1.81521" y2="8.18701" gradientUnits="userSpaceOnUse">
<stop stop-color="#1B4D98"/>
<stop offset="0.1671" stop-color="#0A67A7"/>
<stop offset="0.3598" stop-color="#0082B6"/>
<stop offset="0.5451" stop-color="#0097C0"/>
<stop offset="0.7183" stop-color="#10A5C5"/>
<stop offset="0.8748" stop-color="#1BAEC8"/>
<stop offset="1" stop-color="#1EB1C9"/>
</linearGradient>
<linearGradient id="paint5_linear" x1="38.2359" y1="7.30997" x2="1.19087" y2="8.19169" gradientUnits="userSpaceOnUse">
<stop stop-color="#16549E"/>
<stop offset="0.1431" stop-color="#086AAC"/>
<stop offset="0.3414" stop-color="#0085BC"/>
<stop offset="0.5319" stop-color="#0D9AC7"/>
<stop offset="0.7101" stop-color="#1DA9CE"/>
<stop offset="0.8712" stop-color="#25B2D2"/>
<stop offset="1" stop-color="#28B5D3"/>
</linearGradient>
<linearGradient id="paint6_linear" x1="41.1514" y1="8.75942" x2="25.1416" y2="9.14047" gradientUnits="userSpaceOnUse">
<stop stop-color="#19579D"/>
<stop offset="0.1803" stop-color="#106AA9"/>
<stop offset="0.4162" stop-color="#0A7FB7"/>
<stop offset="0.6384" stop-color="#0C8EC0"/>
<stop offset="0.8393" stop-color="#1297C5"/>
<stop offset="1" stop-color="#159AC7"/>
</linearGradient>
</defs>
</svg>
