<svg width="118" height="34" viewBox="0 0 118 34" fill="none" xmlns="http://www.w3.org/2000/svg">
<path d="M49.9345 24.6658C46.2905 24.6658 43.6562 22.4345 43.6562 19.3759H46.0032C46.0032 21.2562 47.6499 22.6199 49.9969 22.6199C52.0763 22.6199 53.2904 21.5454 53.2904 20.0788C53.2904 18.4053 51.4376 18.1573 49.3788 17.8681C46.6411 17.4965 43.8409 17.0005 43.8409 13.6321C43.8409 10.9254 46.1255 9.00391 49.5224 9.00391C52.9398 9.00391 55.4099 11.1116 55.4099 14.0251H53.1245C53.1245 12.2899 51.6214 11.0498 49.5429 11.0498C47.567 11.0498 46.2905 12.0419 46.2905 13.3849C46.2905 15.0584 47.9783 15.327 50.0781 15.6162C52.7953 15.9878 55.7391 16.4838 55.7391 19.769C55.74 22.6199 53.4964 24.6658 49.9345 24.6658Z" fill="#413C7C"/>
<path d="M57.2617 10.5696C57.2617 9.78438 57.838 9.22656 58.6614 9.22656C59.4642 9.22656 60.0405 9.78438 60.0405 10.5696C60.0405 11.3755 59.4642 11.9539 58.6614 11.9539C57.8388 11.9539 57.2617 11.3755 57.2617 10.5696ZM59.7737 13.6479V24.1444H57.5507V13.6479H59.7737Z" fill="#413C7C"/>
<path d="M61.7695 24.1445V13.648H63.931V14.846C64.5893 13.8334 65.6811 13.2344 66.9363 13.2344C68.5625 13.2344 69.9211 14.0196 70.5384 15.2176C71.2591 14.0196 72.5767 13.255 74.0789 13.255C76.5285 13.255 78.2582 15.1353 78.2582 17.8008V24.1445H76.0352V17.987C76.0352 16.3959 75.0263 15.2597 73.6061 15.2391C72.1449 15.2391 71.095 16.3959 71.095 17.987V24.1445H68.8515V17.987C68.8515 16.3341 67.9255 15.2391 66.484 15.2391C65.0014 15.2391 64.0139 16.3341 64.0139 17.987V24.1445H61.7695Z" fill="#413C7C"/>
<path d="M85.8163 24.5581C84.2517 24.5581 82.9136 23.8759 82.0287 22.719V28.8971H79.7852V13.648H81.9671V15.1147C82.8725 13.9372 84.2106 13.2344 85.8163 13.2344C88.8421 13.2344 91.066 15.6107 91.066 18.8958C91.066 22.1809 88.8635 24.5581 85.8163 24.5581ZM88.843 18.8967C88.843 16.8096 87.3604 15.3429 85.3845 15.3429C83.3881 15.3429 81.9466 16.8516 81.9466 18.8967C81.9466 20.9426 83.3873 22.4504 85.3845 22.4504C87.3809 22.4504 88.843 20.9417 88.843 18.8967Z" fill="#413C7C"/>
<path d="M94.5267 8.89844V24.1475H92.3037V8.89844H94.5267Z" fill="#413C7C"/>
<path d="M101.36 13.2344C104.613 13.2344 106.919 15.5489 106.919 18.7928C106.919 19.0408 106.898 19.3506 106.878 19.5987L98.0668 19.5781C98.3344 21.4378 99.6314 22.677 101.34 22.677C102.739 22.677 104.036 21.8505 104.428 20.6937L106.528 21.0035C105.931 23.07 103.77 24.5573 101.382 24.5573C98.1087 24.5573 95.7617 22.1397 95.7617 18.7722C95.7609 15.548 98.1078 13.2344 101.36 13.2344ZM104.592 17.9243C104.345 16.2715 103.028 15.1147 101.299 15.1147C99.6109 15.1147 98.3754 16.2509 98.0873 17.9243H104.592Z" fill="#413C7C"/>
<path d="M106.813 24.1478L110.457 18.6932L106.999 13.6514H109.634L112.125 17.4119L114.615 13.6514H117.271L113.792 18.6932L117.457 24.1478H114.739L112.125 20.0363L109.51 24.1478H106.813Z" fill="#413C7C"/>
<path d="M86.1535 27.2773V30.7916H85.8594V27.2773H86.1535Z" fill="#FF631E"/>
<path d="M88.1227 27.5468H86.918V27.2773H89.6223V27.5468H88.4168V30.7908H88.1227V27.5468Z" fill="#FF631E"/>
<path d="M95.1451 29.6277L95.4238 29.6878C95.2648 30.3829 94.5825 30.9124 93.7805 30.9124C92.7152 30.9124 91.9482 30.1229 91.9482 29.033C91.9482 27.938 92.7152 27.1484 93.7805 27.1484C94.5825 27.1484 95.2648 27.7028 95.4238 28.428L95.1348 28.4683C95.0006 27.8788 94.438 27.4188 93.7805 27.4188C92.8845 27.4188 92.2415 28.0933 92.2415 29.033C92.2415 29.9676 92.8887 30.643 93.7805 30.643C94.4431 30.643 95.0057 30.2027 95.1451 29.6277Z" fill="#FF631E"/>
<path d="M98.8152 29.5312C98.8152 30.3208 98.2628 30.8854 97.4959 30.8854C96.7238 30.8854 96.1758 30.3208 96.1758 29.5312C96.1758 28.7417 96.7238 28.1719 97.4959 28.1719C98.2628 28.171 98.8152 28.7408 98.8152 29.5312ZM98.5416 29.5312C98.5416 28.891 98.1029 28.4319 97.4959 28.4319C96.888 28.4319 96.4502 28.8919 96.4502 29.5312C96.4502 30.1663 96.8888 30.6306 97.4959 30.6306C98.1029 30.6306 98.5416 30.1654 98.5416 29.5312Z" fill="#FF631E"/>
<path d="M99.6836 30.7877V28.2733H99.9521V28.6328C100.102 28.3479 100.386 28.1729 100.749 28.1729C101.177 28.1729 101.511 28.408 101.625 28.7676C101.76 28.408 102.089 28.178 102.521 28.178C103.099 28.178 103.502 28.6182 103.502 29.2576V30.7869H103.223V29.2576C103.223 28.7676 102.929 28.4329 102.497 28.4329C102.038 28.4329 101.724 28.7676 101.724 29.2576V30.7869H101.451V29.2576C101.451 28.7624 101.162 28.4329 100.728 28.4329C100.265 28.4329 99.9615 28.7624 99.9615 29.2576V30.7869H99.6836V30.7877Z" fill="#FF631E"/>
<path d="M105.828 30.8863C105.35 30.8863 104.962 30.6417 104.767 30.2564V31.9359H104.488V28.2723H104.757V28.8121C104.956 28.4225 105.344 28.1719 105.827 28.1719C106.574 28.1719 107.122 28.7469 107.122 29.5312C107.123 30.3165 106.58 30.8863 105.828 30.8863ZM106.849 29.5321C106.849 28.897 106.406 28.4422 105.803 28.4422C105.195 28.4422 104.758 28.9022 104.758 29.5321C104.758 30.162 105.196 30.6168 105.803 30.6168C106.41 30.616 106.849 30.1611 106.849 29.5321Z" fill="#FF631E"/>
<path d="M110.193 28.2745H110.467V30.789H110.193V30.2492C109.999 30.6388 109.606 30.8894 109.123 30.8894C108.371 30.8894 107.828 30.3195 107.828 29.5351C107.828 28.7456 108.371 28.1758 109.123 28.1758C109.606 28.1758 109.999 28.4255 110.193 28.8203V28.2745ZM110.193 29.5343C110.193 28.8992 109.74 28.435 109.147 28.435C108.539 28.435 108.102 28.8949 108.102 29.5343C108.102 30.1693 108.54 30.6336 109.147 30.6336C109.74 30.6336 110.193 30.1685 110.193 29.5343Z" fill="#FF631E"/>
<path d="M111.79 28.2723V28.6919C111.955 28.377 112.323 28.1719 112.716 28.1719C113.354 28.1719 113.727 28.6465 113.727 29.3064V30.7859H113.453V29.3064C113.453 28.7966 113.189 28.4319 112.697 28.4319C112.214 28.4319 111.79 28.7966 111.79 29.3012V30.7859H111.512V28.2714H111.79V28.2723Z" fill="#FF631E"/>
<path d="M114.615 31.5817C114.719 31.6169 114.839 31.6418 114.928 31.6418C115.292 31.6418 115.431 31.247 115.636 30.7725L114.48 28.2734H114.789L115.775 30.4326L116.637 28.2734H116.931L115.91 30.8077C115.661 31.4221 115.447 31.8976 114.954 31.8976C114.845 31.8976 114.71 31.8727 114.616 31.8323V31.5817H114.615Z" fill="#FF631E"/>
<path d="M8.28906 2.74341C12.6467 2.74341 16.3303 4.97734 17.5226 8.20062C18.6366 4.97734 22.1999 2.7507 26.7481 2.7507C21.0875 -1.10135 13.5944 -0.725384 8.28906 2.74341Z" fill="#413C7C"/>
<path d="M27.2105 18.7058C29.4928 18.7058 31.3429 16.8487 31.3429 14.558C31.3429 12.2672 29.4928 10.4102 27.2105 10.4102C24.9283 10.4102 23.0781 12.2672 23.0781 14.558C23.0781 16.8487 24.9283 18.7058 27.2105 18.7058Z" fill="#FF631E"/>
<path d="M8.12062 18.5325C10.3079 18.5325 12.0811 16.7527 12.0811 14.5573C12.0811 12.3618 10.3079 10.582 8.12062 10.582C5.93332 10.582 4.16016 12.3618 4.16016 14.5573C4.16016 16.7527 5.93332 18.5325 8.12062 18.5325Z" fill="#FF631E"/>
<path d="M21.8898 32.8878C23.8676 32.8449 29.4991 30.1694 32.3794 20.288C30.7955 21.8486 25.5055 22.3275 24.5126 21.928C21.6201 22.821 19.1563 25.5548 17.5127 28.8219C15.8021 25.6537 13.0485 22.6427 10.5404 21.928C8.47698 22.8339 4.47857 21.5829 3.23215 20.7629C5.25274 28.4005 9.76699 31.982 13.206 33.0175C8.09029 32.2404 5.44729 29.1371 3.67292 26.6276C2.10116 24.4067 0.480973 21.0643 0.179862 14.6785C0.0902548 12.7816 1.50621 18.0695 1.50621 18.0695C2.91489 20.3399 5.30279 21.6947 7.89493 21.6947C8.82975 21.6947 9.74358 21.5197 10.6114 21.1737L10.7607 21.1145L10.9174 21.1502C13.4215 21.7976 16.4738 24.6676 17.4861 27.1049C18.6841 24.6052 20.7725 22.4879 23.9838 21.1145L24.1913 20.9962L24.4262 21.0975C25.3457 21.4937 26.3209 21.6947 27.3251 21.6947C29.9108 21.6947 32.2955 20.3448 33.7041 18.0841C33.7041 18.0841 34.9772 10.4432 35.0442 14.6355C35.1209 19.4283 33.6048 23.5851 31.5576 26.8343C29.4563 30.1694 25.4143 33.0791 21.8898 32.8878Z" fill="#413C7C"/>
<path d="M14.187 10.623C13.3199 8.31286 11.2388 7.53499 8.89853 7.08448C4.64261 6.26448 0.171948 6.39412 0 2.03564C1.46196 7.30001 13.1553 1.34529 15.6481 12.4347C15.7757 13.0011 14.187 10.623 14.187 10.623Z" fill="#413C7C"/>
<path d="M15.0715 10.7177C13.7258 8.24154 11.1078 6.55859 8.10559 6.55859C8.05796 6.55859 8.01033 6.5594 7.9627 6.56021C3.65673 6.63638 0.175781 10.1773 0.175781 14.5179C0.175781 14.5358 0.175781 14.5536 0.176589 14.5714C0.184661 15.8055 0.473664 16.9747 0.984665 18.0159C1.11706 18.2873 1.26479 18.5507 1.42705 18.8035C2.83816 21.0107 5.30517 22.4765 8.10559 22.4765C9.10741 22.4765 10.0656 22.2893 10.9496 21.9474C11.3783 21.7813 11.7884 21.5795 12.1775 21.3445C13.486 20.5553 14.5508 19.3974 15.2273 18.0151C15.7448 16.9585 16.0354 15.7706 16.0354 14.5163C16.0354 13.1421 15.6858 11.8473 15.0715 10.7177ZM8.10559 21.5835C5.49084 21.5835 3.20466 20.1453 1.99052 18.0159C1.40202 16.9836 1.06539 15.7893 1.06539 14.5171C1.06539 10.6205 4.22343 7.45071 8.10559 7.45071C11.9877 7.45071 15.1458 10.6205 15.1458 14.5171C15.1458 15.7893 14.8092 16.9836 14.2207 18.0159C13.0065 20.1453 10.7203 21.5835 8.10559 21.5835Z" fill="#413C7C"/>
<path d="M21.0307 10.623C21.8969 8.31367 23.978 7.5358 26.3183 7.08448C30.5742 6.26448 35.0449 6.39412 35.2168 2.03564C33.7549 7.30001 22.0616 1.34529 19.5687 12.4347C19.442 13.0011 21.0307 10.623 21.0307 10.623Z" fill="#413C7C"/>
<path d="M27.1683 6.55599C27.1497 6.55518 27.1312 6.55518 27.1134 6.55518C23.8553 6.55518 21.0492 8.53792 19.831 11.365C19.4145 12.3316 19.1836 13.3963 19.1836 14.5145C19.1836 15.7688 19.4742 16.9567 19.9917 18.0133C20.6625 19.3835 21.7144 20.5333 23.0084 21.3225C23.3491 21.5299 23.7067 21.713 24.0781 21.8678C25.0137 22.2583 26.0381 22.4739 27.1134 22.4739C29.9082 22.4739 32.3703 21.0146 33.7823 18.8155C33.9477 18.5578 34.0987 18.2896 34.2343 18.0133C34.6186 17.229 34.8777 16.3733 34.9851 15.4715C35.023 15.1579 35.0424 14.8386 35.0424 14.5145C35.0432 10.1439 31.5154 6.58516 27.1683 6.55599ZM27.1134 21.5809C24.4987 21.5809 22.2125 20.1427 20.9983 18.0133C20.4098 16.981 20.0732 15.7867 20.0732 14.5145C20.0732 10.6179 23.2312 7.4481 27.1134 7.4481C30.9956 7.4481 34.1536 10.6179 34.1536 14.5145C34.1536 14.5445 34.1536 14.5737 34.1528 14.6037C34.1496 14.8597 34.1326 15.1125 34.1027 15.3621C33.9889 16.3174 33.6838 17.2136 33.2277 18.0133C32.0143 20.1427 29.7281 21.5809 27.1134 21.5809Z" fill="#413C7C"/>
<path d="M14.6061 34.0007C14.9516 34.0007 15.2317 33.503 15.2317 32.889C15.2317 32.2751 14.9516 31.7773 14.6061 31.7773C14.2606 31.7773 13.9805 32.2751 13.9805 32.889C13.9805 33.503 14.2606 34.0007 14.6061 34.0007Z" fill="#FF631E"/>
<path d="M16.0485 33.9998C16.394 33.9998 16.6741 33.502 16.6741 32.8881C16.6741 32.2741 16.394 31.7764 16.0485 31.7764C15.703 31.7764 15.4229 32.2741 15.4229 32.8881C15.4229 33.502 15.703 33.9998 16.0485 33.9998Z" fill="#FF631E"/>
<path d="M18.9423 21.1929C18.8325 21.9157 17.8186 23.3507 17.5941 23.3507C17.3697 23.3507 16.405 21.8768 16.2823 21.1929C16.0716 20.0196 16.3534 19.036 17.5998 19.0352C18.8131 19.0352 19.1344 19.9289 18.9423 21.1929Z" fill="#413C7C"/>
<path d="M18.985 34.0007C19.3305 34.0007 19.6106 33.503 19.6106 32.889C19.6106 32.2751 19.3305 31.7773 18.985 31.7773C18.6395 31.7773 18.3594 32.2751 18.3594 32.889C18.3594 33.503 18.6395 34.0007 18.985 34.0007Z" fill="#FF631E"/>
<path d="M20.5719 33.9998C20.9175 33.9998 21.1976 33.502 21.1976 32.8881C21.1976 32.2741 20.9175 31.7764 20.5719 31.7764C20.2264 31.7764 19.9463 32.2741 19.9463 32.8881C19.9463 33.502 20.2264 33.9998 20.5719 33.9998Z" fill="#FF631E"/>
</svg>
