<svg width="146" height="34" viewBox="0 0 146 34" fill="none" xmlns="http://www.w3.org/2000/svg">
<path d="M41.0469 9.50391V12.3914L46.532 12.5489V26.8362H49.5608V12.5489L55.0478 12.3914V9.50391H41.0469Z" fill="#3F4344"/>
<path d="M64.4506 13.8089H60.0326V9.50391H57.1289V26.8362H60.0326V17.8869C60.0326 17.1013 60.6675 16.4638 61.4522 16.4638H63.3134C64.1493 16.4638 64.8278 17.1426 64.8278 17.9826V26.8362H67.7315V17.0976C67.7315 15.2807 66.2626 13.8089 64.4506 13.8089Z" fill="#3F4344"/>
<path d="M96.9996 20.3276L96.9636 20.2638L99.7326 15.372V13.8533H97.2081L94.439 19.1238H91.9144V9.5127H89.0107V26.8413H91.9144V21.6551H94.439L97.2156 26.8413H99.8653V25.3225L96.9996 20.3276Z" fill="#3F4344"/>
<path d="M102.449 9.5127V26.8413H105.353V9.5127H102.449Z" fill="#24AA49"/>
<path d="M114.947 13.8164H108.762V16.4732H113.811C114.795 16.4732 115.326 16.9795 115.326 17.992V18.7513H111.035C109.755 18.7513 108.724 19.3588 108.178 20.332C107.904 20.8194 107.754 21.3988 107.754 22.0401V23.5588C107.754 25.4806 108.935 26.8475 110.853 26.8475H115.923C117.308 26.8475 118.195 25.7881 118.229 24.8938C118.301 22.9513 118.229 17.107 118.229 17.107C118.229 15.1814 116.867 13.8164 114.947 13.8164ZM115.326 22.1638C115.271 23.96 115.438 24.1869 113.84 24.1869H112.045C111.111 24.1869 110.656 23.7313 110.656 22.7957V22.5426C110.656 21.7082 111.111 21.2769 112.045 21.2769H115.326V22.1638Z" fill="#24AA49"/>
<path d="M131.312 16.4727V26.8582H131.367V17.1176C131.365 16.8964 131.346 16.6789 131.312 16.4727Z" fill="#24AA49"/>
<path d="M120.71 17.1206V26.8611H120.764V16.4756C120.729 16.6818 120.71 16.8993 120.71 17.1206Z" fill="#24AA49"/>
<path d="M131.313 16.4758V26.8613H128.465V18.0076C128.465 16.9951 127.96 16.4889 126.95 16.4889H125.129C124.118 16.4889 123.614 16.9951 123.614 18.0076V26.8613H120.766V16.4758C120.968 15.2889 121.736 14.3889 122.828 14.0177C123.184 13.8958 123.575 13.832 123.993 13.832H126.012C126.021 13.832 126.031 13.832 126.04 13.8339C126.05 13.832 126.057 13.832 126.067 13.832H128.085C128.502 13.832 128.893 13.8958 129.251 14.0177C130.343 14.3889 131.109 15.2889 131.313 16.4758Z" fill="#24AA49"/>
<path d="M86.2351 16.4797V26.8652H83.3864V18.0115C83.3864 16.999 82.8823 16.4928 81.872 16.4928H80.0506C79.0404 16.4928 78.5362 16.999 78.5362 18.0115V26.8652H75.6875V16.4797C75.8903 15.2928 76.6579 14.3928 77.7496 14.0216C78.106 13.8997 78.4964 13.8359 78.9153 13.8359H80.9338C80.9433 13.8359 80.9528 13.8359 80.9623 13.8378C80.9717 13.8359 80.9793 13.8359 80.9888 13.8359H83.0073C83.4243 13.8359 83.8148 13.8997 84.173 14.0216C85.2647 14.3928 86.0323 15.2928 86.2351 16.4797Z" fill="#3F4344"/>
<path d="M142.1 9.51172V14.066H137.304C135.492 14.066 134.023 15.5379 134.023 17.3548V24.1872C134.023 25.4884 134.981 26.844 136.266 26.844C137.41 26.844 141.448 26.8646 143.11 26.8421C144.277 26.8272 145.003 25.794 145.003 24.7553C145.003 21.0878 145.003 9.51359 145.003 9.51359H142.1V9.51172ZM142.1 22.5672C142.1 23.8122 141.709 24.4366 140.555 24.4366H138.442C137.431 24.4366 136.927 23.9303 136.927 22.9178V18.2397C136.927 17.2273 137.431 16.721 138.442 16.721H142.1V22.5672Z" fill="#24AA49"/>
<path d="M73.0854 13.8125H70.1836V26.8286H73.0854V13.8125Z" fill="#3F4344"/>
<path d="M70.1846 9.50391V12.412H73.0863V9.50391H70.1846Z" fill="#24AA49"/>
<path d="M95.1801 30.6112L94.7044 30.6675C94.6798 30.4293 94.657 30.315 94.5433 30.2381C94.3917 30.1294 94.168 30.0656 93.8913 30.0656C93.6108 30.0656 93.3303 30.1087 93.1882 30.1987H93.1825C93.0631 30.2756 93.0214 30.39 93.0214 30.5662C93.0214 31.0612 95.2389 31.0612 95.2389 32.0437C95.2389 32.2968 95.1441 32.6343 94.9015 32.8068C94.6779 32.9643 94.2173 33.0206 93.8932 33.0206C93.5843 33.0206 93.0896 32.9343 92.8792 32.7862C92.6651 32.6287 92.5134 32.3193 92.4414 32.0475L92.9077 31.9331C92.9607 32.1581 93.0365 32.3137 93.154 32.3962C93.2772 32.4862 93.6203 32.5443 93.8913 32.5443C94.187 32.5443 94.4959 32.5068 94.6248 32.415C94.7347 32.3381 94.7632 32.2293 94.7632 32.0437C94.7632 31.5393 92.5457 31.5393 92.5457 30.5662C92.5457 30.3037 92.6745 29.9606 92.9304 29.7994C93.1597 29.6512 93.5729 29.5894 93.8913 29.5894C94.2344 29.5894 94.6002 29.6887 94.8181 29.8462C95.0854 30.0375 95.1479 30.3525 95.1801 30.6112Z" fill="#24AA49"/>
<path d="M98.758 31.3106C98.7523 30.8437 98.9096 30.2043 99.2185 29.9475C99.518 29.7094 99.9805 29.5894 100.422 29.5894C100.86 29.5894 101.32 29.7094 101.622 29.9475C101.931 30.2043 102.084 30.8343 102.084 31.3068C102.084 31.7793 101.933 32.4075 101.622 32.6662C101.322 32.9043 100.86 33.0243 100.422 33.0243C99.9805 33.0243 99.518 32.9062 99.2185 32.6662C98.9096 32.4075 98.7618 31.7681 98.758 31.3106ZM99.2337 31.3012C99.2394 31.7118 99.3379 32.1393 99.5237 32.2931C99.7379 32.4656 100.037 32.5462 100.422 32.5462C100.803 32.5462 101.103 32.4656 101.317 32.2931C101.502 32.1412 101.607 31.7212 101.607 31.3068C101.607 30.8925 101.502 30.4725 101.317 30.3206C101.103 30.1481 100.803 30.0675 100.422 30.0675C100.037 30.0675 99.7379 30.1481 99.5237 30.3206C99.3379 30.4725 99.228 30.9018 99.2337 31.3012Z" fill="#24AA49"/>
<path d="M105.793 29.8783V29.6401H106.269V29.8783V32.4995H107.819H108.056V32.9757H107.819H105.793V29.8783Z" fill="#24AA49"/>
<path d="M111.578 29.8783V29.6401H112.054V29.8783V31.622C112.078 31.9407 112.173 32.2651 112.331 32.3757C112.511 32.5051 112.734 32.5482 113.068 32.5482C113.401 32.5482 113.625 32.5051 113.805 32.3757C113.962 32.267 114.057 31.952 114.082 31.622V29.8783V29.6401H114.558V29.8783V31.6426C114.533 32.0382 114.372 32.5726 114.072 32.7676C113.815 32.9532 113.449 33.0245 113.068 33.0245C112.687 33.0245 112.321 32.9532 112.063 32.7676C111.764 32.5726 111.603 32.0289 111.578 31.6426V29.8783Z" fill="#24AA49"/>
<path d="M119.682 29.6401H120.562H120.798V30.1164H120.562H119.682V32.7376V32.9757H119.206V32.7376V30.1164H118.268H118.031V29.6401H118.268H119.206H119.682Z" fill="#24AA49"/>
<path d="M124.293 29.8783V29.6401H124.769V29.8783V32.7376V32.9757H124.293V32.7376V29.8783Z" fill="#24AA49"/>
<path d="M128.405 31.3106C128.4 30.8437 128.557 30.2043 128.866 29.9475C129.165 29.7094 129.628 29.5894 130.07 29.5894C130.507 29.5894 130.968 29.7094 131.269 29.9475C131.578 30.2043 131.732 30.8343 131.732 31.3068C131.732 31.7793 131.58 32.4075 131.269 32.6662C130.97 32.9043 130.507 33.0243 130.07 33.0243C129.628 33.0243 129.165 32.9062 128.866 32.6662C128.559 32.4075 128.411 31.7681 128.405 31.3106ZM128.881 31.3012C128.887 31.7118 128.985 32.1393 129.171 32.2931C129.385 32.4656 129.685 32.5462 130.07 32.5462C130.45 32.5462 130.75 32.4656 130.964 32.2931C131.15 32.1412 131.254 31.7212 131.254 31.3068C131.254 30.8925 131.15 30.4725 130.964 30.3206C130.75 30.1481 130.45 30.0675 130.07 30.0675C129.685 30.0675 129.385 30.1481 129.171 30.3206C128.987 30.4725 128.877 30.9018 128.881 31.3012Z" fill="#24AA49"/>
<path d="M135.921 32.7376V32.9757H135.445V32.7376V29.6401H136.435L137.79 32.4995H138.008V29.8783V29.6401H138.484V29.8783V32.9757H137.485L136.13 30.1164H135.921V32.7376Z" fill="#24AA49"/>
<path d="M144.731 30.6112L144.255 30.6675C144.231 30.4293 144.208 30.315 144.094 30.2381C143.942 30.1294 143.719 30.0656 143.442 30.0656C143.162 30.0656 142.881 30.1087 142.739 30.1987H142.733C142.614 30.2756 142.572 30.39 142.572 30.5662C142.572 31.0612 144.79 31.0612 144.79 32.0437C144.79 32.2968 144.695 32.6343 144.452 32.8068C144.229 32.9643 143.768 33.0206 143.444 33.0206C143.135 33.0206 142.64 32.9343 142.43 32.7862C142.216 32.6287 142.064 32.3193 141.992 32.0475L142.458 31.9331C142.512 32.1581 142.587 32.3137 142.705 32.3962C142.828 32.4862 143.171 32.5443 143.442 32.5443C143.738 32.5443 144.047 32.5068 144.176 32.415C144.286 32.3381 144.314 32.2293 144.314 32.0437C144.314 31.5393 142.096 31.5393 142.096 30.5662C142.096 30.3037 142.225 29.9606 142.481 29.7994C142.711 29.6512 143.124 29.5894 143.442 29.5894C143.785 29.5894 144.151 29.6887 144.369 29.8462C144.634 30.0375 144.697 30.3525 144.731 30.6112Z" fill="#24AA49"/>
<path d="M8.28426 18.0661L0.0546875 15.1073V15.1055L8.28426 18.0661Z" fill="#0C7C80"/>
<path d="M24.5101 17.4636V14.6267H8.28405V17.4654L0.143555 14.2348C0.22695 13.6067 0.346356 12.988 0.50367 12.3824C2.29856 5.26681 8.72756 0 16.398 0C24.0666 0 30.4975 5.26681 32.2924 12.3824C32.4478 12.9861 32.5691 13.603 32.6506 14.2273L24.5101 17.4636Z" fill="#0C7C80"/>
<path d="M32.749 15.1055V15.1073L24.5156 18.0661L32.749 15.1055Z" fill="#0C7C80"/>
<path d="M32.8041 16.4308C32.8022 16.4589 32.8022 16.487 32.8003 16.5151C32.4421 23.6494 28.1018 29.7056 21.7979 31.9387C21.6974 31.9743 21.5951 32.0081 21.4927 32.0418C21.2634 32.1168 21.0322 32.1881 20.7971 32.2518C20.2172 32.415 19.622 32.5481 19.0117 32.6456V20.0345L23.57 18.3957L24.5101 18.0582L32.7416 15.0977V15.0995C32.7454 15.1352 32.7473 15.1689 32.7511 15.2045C32.7586 15.3077 32.7662 15.4127 32.7719 15.5177C32.7984 15.8926 32.8136 16.2414 32.8041 16.4308Z" fill="white"/>
<path d="M32.8 16.4308V16.5151C32.7621 23.6607 28.1772 29.7112 21.7975 31.9387C21.6971 31.9743 21.5947 32.0081 21.4924 32.0418C21.263 32.1168 21.0318 32.1881 20.7968 32.2518C20.2149 32.4131 19.6179 32.5462 19.0114 32.6437C19.0076 32.6437 19.0038 32.6456 19 32.6456V20.0382L19.0114 20.0345L23.5697 18.3957L24.5098 18.0582L32.7412 15.0977V15.0995C32.745 15.1352 32.7469 15.1689 32.7507 15.2045C32.7583 15.3077 32.7659 15.4127 32.7716 15.5177C32.7905 15.8233 32.8 16.127 32.8 16.4308Z" fill="#24AA49"/>
<path d="M13.7905 20.0442V32.6515C13.4247 32.5934 13.0608 32.5222 12.7045 32.4397C12.5908 32.4134 12.477 32.3853 12.3652 32.3572C5.32212 30.5459 0.519324 24.0997 0 16.4348C0 15.9886 0.0189534 15.5461 0.0587556 15.1073V15.1055L8.28833 18.0661L9.22842 18.4036L13.7905 20.0442Z" fill="white"/>
<path d="M13.7905 20.0442V32.6515C13.4247 32.5934 13.0608 32.5222 12.7045 32.4397C12.5908 32.4134 12.477 32.3853 12.3652 32.3572C5.26147 30.5534 0 24.1185 0 16.4348C0 15.9886 0.0189534 15.5461 0.0587556 15.1073V15.1055L8.28833 18.0661L9.22842 18.4036L13.7905 20.0442Z" fill="#24AA49"/>
</svg>
