<svg width="63" height="68" viewBox="0 0 63 68" fill="none" xmlns="http://www.w3.org/2000/svg">
<path d="M7.13977 29.6538L5.57031 42.1839C15.038 48.3085 23.5616 56.2961 31.4981 65.4448C40.3789 56.1557 49.3234 48.1937 58.3445 42.0307L56.4815 29.6538H7.13977Z" fill="white"/>
<path d="M31.5498 55.2523C23.9323 45.5294 16.5316 39.1624 5.73693 32.3614C8.00816 19.5762 4.03989 13.107 0.199219 0.70459C11.0705 8.60285 22.3118 17.9685 31.5115 27.1427C40.9282 16.8329 52.412 7.65863 62.8239 0.70459C59.8126 13.8599 54.747 19.5762 57.2862 32.2466C46.5935 39.0475 39.7033 45.5294 31.5498 55.2523Z" fill="#FF7300"/>
<path d="M31.4988 67.5759L30.478 66.3509C22.2863 56.577 13.9797 49.1636 4.32062 43.0134L3.49121 42.4775L3.75919 41.5205C7.17879 29.2584 4.35888 15.7459 1.1562 4.14733L0.199219 0.689453L3.18499 2.67996C13.061 9.27674 22.5925 17.5068 31.5115 27.1276C40.4306 17.5068 49.9621 9.27674 59.8381 2.67996L62.8239 0.689453L61.8669 4.14733C58.6515 15.7459 55.8315 29.2584 59.2639 41.5205L59.5319 42.4775L58.7025 43.0134C49.0434 49.1636 40.7368 56.577 32.5451 66.3509L31.4988 67.5759ZM6.57907 41.3036C15.7278 47.2496 23.6899 54.3185 31.4988 63.4417C39.3078 54.3185 47.2698 47.2496 56.4185 41.3036C53.5348 29.922 55.5509 17.7875 58.3452 6.95448C49.3369 13.3216 40.6475 21.0667 32.4813 30.024L31.4988 31.1086L30.5163 30.024C22.3501 21.0667 13.6607 13.3216 4.65235 6.95448C7.44672 17.7747 9.46277 29.922 6.57907 41.3036Z" fill="#252429"/>
<path d="M31.5531 55.2499C29.3712 52.5066 27.7124 50.6181 25.875 48.5894L37.346 48.6787C35.1768 50.9627 33.6967 52.6852 31.5531 55.2499Z" fill="#252429"/>
</svg>
